<?xml version="1.0" standalone="no"?>
<!DOCTYPE svg PUBLIC "-//W3C//DTD SVG 1.1//EN" "http://www.w3.org/Graphics/SVG/1.1/DTD/svg11.dtd" >
<svg xmlns="http://www.w3.org/2000/svg">
<metadata>
Created by FontForge 20120731 at Fri May  6 15:35:01 2016
 By admin
</metadata>
<defs>
<font id="iconfont" horiz-adv-x="1024" >
  <font-face 
    font-family="iconfont"
    font-weight="500"
    font-stretch="normal"
    units-per-em="1024"
    panose-1="2 0 6 3 0 0 0 0 0 0"
    ascent="896"
    descent="-128"
    x-height="792"
    bbox="-1.92 -2136 2314 896.633"
    underline-thickness="50"
    underline-position="-100"
    unicode-range="U+0078-E8A7"
  />
<missing-glyph horiz-adv-x="374" 
d="M34 0v682h272v-682h-272zM68 34h204v614h-204v-614z" />
    <glyph glyph-name=".notdef" horiz-adv-x="374" 
d="M34 0v682h272v-682h-272zM68 34h204v614h-204v-614z" />
    <glyph glyph-name=".null" horiz-adv-x="0" 
 />
    <glyph glyph-name="nonmarkingreturn" horiz-adv-x="341" 
 />
    <glyph glyph-name="x" unicode="x" horiz-adv-x="1001" 
d="M281 543q-27 -1 -53 -1h-83q-18 0 -36.5 -6t-32.5 -18.5t-23 -32t-9 -45.5v-76h912v41q0 16 -0.5 30t-0.5 18q0 13 -5 29t-17 29.5t-31.5 22.5t-49.5 9h-133v-97h-438v97zM955 310v-52q0 -23 0.5 -52t0.5 -58t-10.5 -47.5t-26 -30t-33 -16t-31.5 -4.5q-14 -1 -29.5 -0.5
t-29.5 0.5h-32l-45 128h-439l-44 -128h-29h-34q-20 0 -45 1q-25 0 -41 9.5t-25.5 23t-13.5 29.5t-4 30v167h911zM163 247q-12 0 -21 -8.5t-9 -21.5t9 -21.5t21 -8.5q13 0 22 8.5t9 21.5t-9 21.5t-22 8.5zM316 123q-8 -26 -14 -48q-5 -19 -10.5 -37t-7.5 -25t-3 -15t1 -14.5
t9.5 -10.5t21.5 -4h37h67h81h80h64h36q23 0 34 12t2 38q-5 13 -9.5 30.5t-9.5 34.5q-5 19 -11 39h-368zM336 498v228q0 11 2.5 23t10 21.5t20.5 15.5t34 6h188q31 0 51.5 -14.5t20.5 -52.5v-227h-327z" />
    <glyph glyph-name="uniE600" unicode="&#xe600;" horiz-adv-x="1000" 
d="M913 -175h-3h-404q-5 0 -6 4q-3 8 -11 1l-3 -5h-370v22v2q0 23 1 25q1 17 2 29q6 47 17 79q11 29 28 51q6 9 14 17q14 13 31 22q18 10 25 13q8 4 24 10.5t20 8.5q7 3 11.5 6t7.5 11q3 9 13 18q1 1 16.5 13t22.5 20q8 9 11 13q16 15 30 20q3 2 5 2q4 0 4 5q0 20 -8 38
q-3 5 -7 14l-7 13q-3 6 -9 18.5t-7 15.5q-2 3 -3 5q-3 3 -4 3q-13 3 -21 18q-26 45 -26 46q-8 15 -9 27v19q0 4 -4 5q-2 0 -2 3v21q0 1 -2 16q-5 -3 -6 -3q-6 -3 -5 3q0 4 0.5 10t0.5 7q0 4 -3 3q-2 -1 -6 0q-4 0 -3 4q2 7 6 22l1 7q-2 1 -3 1q-4 -2 -4.5 0t0.5 7l3 5
q-11 1 -12 1q-4 1 -2 5q1 3 7 12q1 1 5 8l-8 3t-1 8q4 3 6 5l3 2q-10 3 -11 3q0 1 -1 1h-1q-4 2 -2 5q2 6 10 13q2 3 10 12q0 1 8 12q-2 3 -3 3q-6 5 1 9q1 0 2.5 1t3.5 2t3 1l3 2q-5 2 -6 2q-6 4 -6 5q-2 3 2 6q2 1 5 3t5 4l12 12q2 2 14 15l2 2l-6 2q-1 0 -4.5 0.5
t-4.5 3.5t2 5q9 5 21 7q1 0 7 1.5t9 2.5q6 2 26 14q17 10 24 12l9 3q-1 1 -5.5 10t-4.5 14q7 1 19.5 -2.5t22.5 -1.5q-1 2 -3 8t-2 7.5t1 7.5q7 0 16 -6q12 -9 18 -9q3 -1 4 1q6 8 12 17q6 8 12 9l1 1h2q-3 -16 -4 -24l6 1q9 3 17 7q4 1 10 4t9 4l4 1q1 -2 0 -4t-2 -4.5
t-2 -3.5h8q16 -1 25 -3q9 -1 20 -3q12 -2 28 3q2 -3 -0.5 -6t-3.5 -4q18 2 28 3q1 -3 -7 -13l9 -7q7 -6 11 -9q1 -1 8 -7.5t11 -9.5q2 -2 7 -2q34 -6 42 -8q0 -5 -4 -7q-2 -1 -16 -7l8 -11q2 -3 10.5 -14.5t12.5 -17.5q1 -2 5 -9q1 -2 0 -2.5t-3 -0.5l-5 1q4 -9 4.5 -9.5
t4 -10.5t5.5 -14q1 -4 4 -8t-2 -7l-1 -1q2 -3 8 -15.5t9 -20.5q-3 0 -9 2t-9 1q1 -14 1 -15q1 -7 5 -22q0 -2 2 -6q2 -3 -1.5 -3.5t-5.5 -0.5q-4 1 -4 -2q0 -2 -1 -5.5t-1 -4.5v-1q2 -5 -1 -8q-4 -3 -8 -3q3 -16 3 -18.5t-1 -6.5h-1q-1 -1 -1 0l-4 3v-9q0 -11 -5 -20v-2
q4 -17 4 -31q-1 -12 -7 -22q-11 -18 -12 -20q-2 -3 -9 -23q-5 -13 -12 -17q-7 -3 -12 -3q-6 0 -9 -5q-6 -9 -10 -24q-5 -19 -16 -35q-9 -15 -13 -23q-4 -10 -2 -24q16 -1 29 -5q11 -5 21 -13q16 -13 26 -34q2 -5 17 -38q2 -3 4 -8.5t3 -7.5l1 -1q17 -14 20 -16q11 -8 26 -13
q17 -5 37 -18q37 -24 40 -26q12 -8 22 -18q9 -10 17 -31q8 -20 17 -56q3 -12 7 -38q2 -8 4 -28q1 -10 1 -19v-22zM667 336q11 -1 16 8q2 5 3 10q4 12 22 43q11 18 8 34q-3 15 -14 21q-4 3 -7 -1q-4 -5 -7 -9q-7 -10 -12 -11q-7 -1 -7 -7q0 -4 -5 -5q-4 0 -5 4q-2 10 -2 11v8
v6q-1 4 -5 6q-16 6 -34 7q-23 1 -42 -3q-21 -5 -34 -13q-2 -1 -2 -2v-24q0 -5 -4 -6q-6 -2 -8 3q-1 4 -2 22l1 6q-15 2 -33 -2v-21q0 -6 -3 -8q-5 -5 -6 1q0 1 -1 16q-2 9 -2 11t-2 3q-23 9 -41 13q-11 1 -20 2q-12 1 -19 0q-10 -2 -20 -6q-7 -3 -13 -9q-4 -3 -3 -16t0 -16
h-18q5 -34 6 -36q5 -29 11 -47q3 -9 14 -37q8 -20 25 -37q5 -5 14 -13q13 -13 18 -17q14 -11 29 -18q29 -12 62 -9q22 2 36 11q3 2 8.5 5t7.5 4q18 11 26 19q13 14 19 22q10 13 18 28q9 14 16 41q5 16 16 62q1 4 0 22q0 6 1 15l4 4l4 -4v-1q3 7 15 10q-1 -2 -4 -5
q-8 -10 -9 -16q-2 -7 3 -9q0 5 1 6q0 1 3 2q1 0 1 -2q2 -11 2 -16l-2 -13h4l-1 -3q0 -2 -1 -3q-2 -1 -3 -1l-2 1l-6 -5q0 -1 -1 -1h-2v4l1 3q-7 -5 -6 -17q5 -3 8 2l1 1l4 2q0 -1 1 -1q-2 -9 -7 -14q-3 -3 -6 -0.5t-4 2.5t-2 -4q0 -1 -2 -13zM520 -128q9 13 9 14q6 11 14 42
q8 28 18 40q4 5 13 14.5t10 11.5q16 18 19 21q24 33 37 90q1 2 -1 3.5t-5.5 4t-3.5 3.5q-19 13 -21 29q-2 14 -1 25l2 35q1 1 2 25l-3 -2q-9 -3 -31 -20q-16 -13 -33 -17q-18 -4 -45 -3q-12 1 -25 4q-14 4 -38 20q-19 14 -31 18v-4q0 -1 1.5 -17t2.5 -24q1 -19 -2 -32
t-10 -18q-11 -9 -17 -14q-8 -6 -8 -12q0 -12 1 -17q6 -30 20 -56q13 -23 26 -30q7 -4 25 -12q21 -9 29 -19q33 -38 38 -79q1 -13 8 -24zM668 455v1h1v20q-3 13 -8 31q-9 31 -9 43q0 1 -1 2q-15 19 -20 25l-6 6h-1q0 -2 0.5 -6.5t0.5 -8t-2 -7.5q-7 9 -7 10q-2 2 -4 5t-3 4
q-4 7 -7 10l-7 8q0 -12 -1 -13q-44 34 -65 45l3 -3q11 -12 12 -12q2 -3 5 -8q2 -4 -2 -4h-12q-2 1 -18 5q0 -3 -3 -2q-1 0 -3.5 1t-3.5 1q-5 2 -14.5 6.5t-13.5 6.5q-5 2 -6.5 1.5t-4.5 -4.5q-1 0 -2 -1t-1 -2q-21 -26 -31 -34l-3 -1l-2 3v6l-2 -4q-9 -14 -10 -14
q-7 -11 -15 -16l-9 -3v1q2 8 3 8q2 6 1 9q-22 -35 -23 -51q-2 0 -3.5 3.5t-1.5 4.5q-6 -12 -7 -13q-5 -11 -5 -13q-1 -3 -3 -23q-3 -23 -3 -24t-4 -13h8l5 11q6 9 21 13q24 7 57 4q22 -2 43 -12q7 -4 13 -2q5 1 25 -1q18 -1 27 5q13 9 40 12q19 2 36 1q21 -2 38 -8
q4 -1 5 -5q1 0 3 -4zM336 430q-8 5 -9 6q-5 3 -7 4q-7 2 -9 -1q-8 -16 -5 -32q2 -12 12 -29q3 -6 9.5 -17t9.5 -15q3 -6 6 -10q4 -5 11 -6q-4 22 -5 24q-1 4 -1.5 4.5t-4.5 -1.5q-4 -1 -5 2q-2 4 4 5l5 1l-1 5q-1 5 -6 6l1 -3l1 -4q-4 1 -5 1l-1 1q-9 9 -8 22q0 9 8 12
l-1 -7v-7q2 0 3 1l2 1q-3 25 -4 37zM354 669q7 8 21.5 18.5t18.5 14.5q-19 -9 -22 -10q-1 -1 -9 -2q-2 0 -3 1q0 1 1 2t7 6q-4 1 -7 -2q-5 -5 -21 -22l-2 -2v-1q8 5 15 11q4 -6 1 -14zM480 -97q0 7 -5 7q-2 0 -4.5 -2.5t-2.5 -4.5t2 -4.5t3 -2.5q7 0 7 7zM680 385q4 -1 5 4
q2 7 -3 10q-1 -2 -1 -4.5t-0.5 -5.5t-0.5 -4zM343 382v4l-0.5 0.5t-1.5 0.5l-5 -5h7zM480 -97q0 -7 -7 -7q-1 0 -3 2.5t-2 4.5t2.5 4.5t4.5 2.5q5 0 5 -7zM680 385q0 2 0.5 6.5t1.5 7.5q5 -3 3 -10q-1 -5 -5 -4zM343 382h-7l5 5q1 0 1.5 -0.5l0.5 -0.5v-4zM610 449
q2 -9 3 -21q4 -2 0 -6q-4 -5 -12 -5q-16 -1 -27 4l-8 5l1 1h8q-3 11 -2 16q0 1 -1 1l-12 -12q2 -5 3 -6h-1v-1q-2 0 -6 1t-6 2q5 14 19 23q16 9 37 7q14 -2 30 -13l12 -10l4 -6q-22 -2 -26 -3q-2 0 -4 1l-3 2l3 3l9 2h3q-5 7 -24 15zM590 446h-4q-6 -2 -6 -5q-1 -3 2 -5
q4 -3 7.5 -1.5t4.5 5.5q2 6 -4 6zM460 425q-1 8 -11 15q-1 -8 -1 -9l-1 -8h8v-1q-4 -4 -12 -7q-10 -3 -21 -3q-9 1 -14 6q-3 3 0 5q2 1 2 3q-2 9 0 17q-1 2 -7 0q-8 -2 -18 -11q6 -1 6 -2q9 -2 10 -2t1 -2q-1 -1 -2 -1q-13 -1 -24 3l-1 1q4 10 15 16.5t26 7.5q17 2 31 -3
q13 -5 18 -14h1q0 -2 2 -9q-3 0 -8 -2zM431 442q-9 1 -10 1q-3 0 -4 -2q-2 -3 1 -6q3 -4 7 -3q6 2 6 10zM575 290q-40 -9 -45 -11q-9 -2 -23 0q-4 1 -15.5 2.5t-17.5 2.5h-7h-6q-8 0 -10 6h4h25q11 -1 22 -3q15 -3 33 2q11 3 23 5q9 2 17 -4zM476 266q29 -15 76 1
q-3 -6 -10 -10q-9 -6 -22 -7q-20 -2 -33 6q-7 3 -11 10zM698 394q4 11 5 12q4 12 3 18q0 1 -3 14q11 -5 9 -23q-3 -19 -14 -21zM530 321l1 3q6 8 15 9q3 0 5 -2q5 -4 -1 -7q-8 -4 -20 -3zM497 322h-11q-2 0 -4 1l-3 1q-2 1 -2 3q0 5 4 5q10 0 16 -10zM543 393q2 -3 12 -29
q-7 4 -10.5 12.5t-1.5 16.5zM650 402l3 5q6 6 6 9h1l2 1q2 -1 2 -3q-1 -6 -7 -10q-1 0 -6 -2h-1zM365 407q4 -1 6 -8q-8 0 -6 8zM436 107q7 -12 14.5 -37t10.5 -33q-20 23 -25 70zM584 118l2 -3q-1 -37 -11 -59q0 11 4 32t4 29zM376 491q3 6 10 10q10 6 26 7q29 1 51 -12
q6 -3 15 -11l4 -8q1 -2 0 -3t-4 -1q-4 4 -26 8q-32 7 -75 10h-1zM537 477q2 9 12 17q14 10 38 16q17 4 30 2q14 -3 30 -16q-3 -4 -8 -4q-2 0 -7 0.5t-8 0.5q-7 1 -17 0q-8 -1 -17 -3q-34 -6 -45 -12q-4 -3 -8 -1zM324 389l-5 6q-6 13 -1 25t15 5q4 -3 0 -4q-3 -1 -7 0
q-2 0 -3 -2q-3 -4 -1 -12q0 -2 1 -5.5t1 -4.5t1 -8h-1z" />
    <glyph glyph-name="uniE601" unicode="&#xe601;" horiz-adv-x="1000" 
d="M506 754h16q101 -2 188 -47q67 -33 119 -87.5t82 -122.5q37 -80 39 -171v-16q-2 -113 -58 -209q-65 -114 -182 -173q-40 -21 -103 -37q-8 -3 -40 -9h-98q-119 15 -210 82q-79 57 -125 139q-54 95 -57 207v16q2 38 7 67q19 110 89 197q53 66 125 107q95 55 208 57z
M372 693q-77 -29 -136 -86q-49 -46 -80.5 -108t-39.5 -129q-13 -100 22 -194q30 -80 90 -140q17 12 36.5 21.5t50.5 22t39 16.5q27 11 42 23q17 14 16 27q2 32 0 53q-27 32 -38 80q-20 12 -27 37q-10 34 -1 55q1 3 3.5 7t3.5 6q-13 59 -12 103q2 42 17 75q20 40 60 60
t101 20q58 -2 83 -32q19 -4 31 -11q29 -15 44 -48q11 -25 12 -56q3 -50 -15 -112q17 -20 10 -50q-6 -40 -31 -54q-10 -48 -36 -78q-1 -1 -1 -8q0 -41 1 -54q7 -18 39 -35q17 -8 46.5 -19.5t53.5 -23t43 -25.5q60 60 90 139q48 124 10 254q-21 74 -69.5 136t-115.5 101
q-81 46 -175 52q-86 6 -167 -25zM453 598q-41 -12 -60 -46q-17 -29 -17 -74q0 -40 16 -106q-1 -2 -4.5 -4.5t-6 -5t-3.5 -5.5q-3 -8 1 -27q5 -15 11 -19q2 -1 4.5 -1.5t5.5 -1t5 -0.5q6 -33 8 -37q7 -24 20 -41q1 -2 15 -14q-1 -70 -1 -74q-2 -14 -3 -17q-8 -18 -23 -31
q-20 -17 -57 -32q-9 -4 -27.5 -11t-27.5 -11q-36 -16 -54 -28q42 -36 92 -59q119 -56 251 -28q35 8 89 34q56 30 85 53q-24 16 -72 35.5t-65 28.5q-42 22 -52 54q-3 24 -2 86q11 9 14 13q12 18 20 43q2 3 7 36q1 0 7 1t9 2q6 5 10 19q4 19 2 27q-2 3 -4.5 5.5t-6 5.5t-4.5 4
q24 79 19 132q-5 40 -29 59q-13 11 -43 15q-11 15 -15 18q-18 10 -51 11q-39 0 -63 -9z" />
    <glyph glyph-name="uniE602" unicode="&#xe602;" 
d="M512 747q-91 0 -174 -35.5t-143 -95.5t-95 -142.5t-35 -173.5t35 -174t95 -143t143 -95.5t174 -35.5t174 35.5t142.5 95.5t95 143t35.5 174t-35.5 173.5t-95 142.5t-142.5 95.5t-174 35.5zM512 -36q-91 0 -168.5 45t-122.5 122.5t-45 168.5t45 168t122.5 122t168.5 45
t168.5 -45t122 -122t44.5 -168t-44.5 -168.5t-122 -122.5t-168.5 -45zM708 356h-140v139q0 12 -8.5 20t-19.5 8h-56q-12 0 -20 -8t-8 -20v-139h-140q-11 0 -19.5 -8.5t-8.5 -19.5v-56q0 -12 8.5 -20t19.5 -8h140v-140q0 -12 8 -20t20 -8h56q11 0 19.5 8t8.5 20v140h140
q11 0 19.5 8t8.5 20v56q0 11 -8.5 19.5t-19.5 8.5z" />
    <glyph glyph-name="uniE603" unicode="&#xe603;" 
d="M507 135l67 67l-87 87l-66 -67v-32h54v-55h32zM759 547q-9 9 -19 -1l-200 -200q-10 -9 -0.5 -18.5t18.5 0.5l200 200q10 10 1 19zM805 207v-108q0 -68 -48.5 -116.5t-116.5 -48.5h-475q-68 0 -116.5 48.5t-48.5 116.5v475q0 68 48.5 116.5t116.5 48.5h475q36 0 67 -14
q8 -4 10 -14q2 -9 -5 -16l-28 -28q-8 -8 -18 -5q-13 4 -26 4h-475q-38 0 -65 -27t-27 -65v-475q0 -38 27 -65t65 -27h475q38 0 64.5 27t26.5 65v72q0 7 6 12l36 37q9 9 20.5 4t11.5 -17zM750 629l164 -164l-384 -384h-164v164zM1003 554l-52 -53l-165 165l53 52q16 16 39 16
t39 -16l86 -87q16 -16 16 -38.5t-16 -38.5z" />
    <glyph glyph-name="uniE604" unicode="&#xe604;" 
d="M512 791q-95 0 -182 -37.5t-150 -100t-100 -149.5t-37 -182.5t37 -182.5t100 -150t150 -100t182 -37t182 37t150 100t100 150t37 182.5t-37 182.5t-100 149.5t-150 100t-182 37.5zM512 -122q-92 0 -174.5 36t-142.5 101q61 63 112 76q9 2 29 6.5t28.5 7t24.5 7.5t23 9.5
t16 11.5t12.5 15.5t3.5 19.5q0 22 2 44.5t4 33.5l2 11q-3 2 -8 6t-18.5 18t-23.5 30.5t-18.5 44.5t-8.5 59q0 152 60 196q41 31 103 0q5 -2 22 -9t27 -13t24 -17t23.5 -29t14.5 -42q7 -36 8 -70.5t-4 -70t-23.5 -63.5t-49.5 -40q-1 -11 -1.5 -27.5t3.5 -48t15 -39.5
q2 -1 9 -5.5t8.5 -5.5t7.5 -4.5t8.5 -4.5t9 -3.5t12 -4t13.5 -3t18 -3.5q39 -6 84.5 -37.5t51.5 -56.5q1 -3 2 -7q-60 -61 -140 -95t-169 -34z" />
    <glyph glyph-name="uniE605" unicode="&#xe605;" 
d="M677 65q-76 -53 -168 -52q-8 0 -24 1q-2 0 -9 1q-12 2 -19 3q-1 0 -11 3q-11 2 -17 4q-1 0 -3.5 1t-4.5 2q-10 3 -19 7q-1 0 -5 2q-12 5 -22 10v1h-1q-37 20 -65 49l-1 1q-10 10 -17 19q-2 2 -3 4q-63 79 -63 179h75l-121 182l-121 -182h76q0 -117 67 -214l1 -1v-2
q3 -4 14 -18l3 -3l2 -3q8 -10 22 -24l2 -2q38 -38 85 -64l3 -1q12 -7 27 -14q1 0 3.5 -1t3.5 -2q9 -4 25 -9q5 -2 11 -4q10 -3 22 -5q13 -4 15 -4q5 -1 6 -1q4 -1 21 -3q6 -1 8 -1q21 -2 38 -2q118 0 216 69q15 10 18.5 28.5t-7.5 34.5q-11 15 -29.5 18.5t-33.5 -7.5z
M890 300q0 117 -67 214l-1 1v2q-7 10 -17 21q-1 1 -2 3q-58 70 -141 106q-1 0 -2.5 0.5t-1.5 1.5q-11 4 -27 10q-8 2 -10 3q-10 3 -23 6q-2 0 -6.5 1.5t-7.5 1.5q-1 0 -3 0.5t-3 1.5q-4 0 -18 2q-2 0 -6 0.5t-7 0.5q-12 2 -30 2h-3h-2h-1q-119 0 -216 -68
q-15 -11 -18.5 -29.5t7.5 -34t29.5 -18.5t33.5 8q76 52 167 51q14 0 25 -1q3 0 8 -1q14 -2 20 -3q2 0 9 -2q12 -3 19 -5l6 -2q13 -4 22 -8l1 -1h1q64 -27 109 -81v-1q65 -79 65 -182h-75l121 -181l121 181h-76zM890 300z" />
    <glyph glyph-name="uniE606" unicode="&#xe606;" 
d="M208 388q33 95 116.5 155t187.5 60q90 0 167 -47l-59 -105l323 -163q-2 115 -60.5 212.5t-156.5 153.5t-214 56q-139 0 -250 -80t-156 -207q7 -36 29 -49t43 -7t30 21v0zM814 163q-36 -93 -118 -150.5t-184 -57.5q-93 0 -171 50l52 84l-312 179q3 -115 61 -211.5
t156.5 -153t213.5 -56.5q140 0 251.5 81t155.5 210q9 25 -10 50.5t-48.5 22t-46.5 -47.5v0z" />
    <glyph glyph-name="uniE607" unicode="&#xe607;" 
d="M739 330h-188v207q0 22 -34 24q-16 1 -24.5 -6t-8.5 -18v-207h-199q-1 0 -4.5 0.5t-9 -1t-11 -4t-9.5 -8.5t-4 -14q0 -15 2.5 -24t7.5 -12.5t9 -4t11 -0.5h207l-1 -217v-6q0 -5 0.5 -6t0.5 -5.5t1 -6t2.5 -5t4 -5t5.5 -3t7.5 -2t10.5 -0.5q35 0 35 42l1 214h189
q42 0 42 36q0 16 -10.5 24.5t-21.5 7.5h-11zM518.5 770q-97.5 0 -186.5 -38t-153 -102.5t-102 -153t-38 -186.5t38 -186.5t102 -153t153 -102.5t186.5 -38t186.5 38t153.5 102t102.5 153t38 187t-38 186.5t-102.5 153t-153.5 102.5t-186.5 38zM519 -126q-113 0 -209 55.5
t-151.5 151.5t-55.5 209t55.5 209t151.5 151.5t209 55.5t208.5 -55.5t151.5 -151.5t56 -209t-56 -209t-151.5 -151.5t-208.5 -55.5z" />
    <glyph glyph-name="uniE608" unicode="&#xe608;" 
d="M764 760h-504q-85 0 -144.5 -60t-59.5 -145v-510q0 -85 59.5 -145t144.5 -60h504q85 0 144.5 60t59.5 145v510q0 85 -59.5 145t-144.5 60zM711 -24h-199h-199q-34 83 -34 100q0 7 8.5 15.5t16.5 12.5l9 5l116 39v34q-37 21 -59.5 58.5t-23.5 81.5q-20 7 -29.5 46.5
t2.5 50.5q9 9 27 1q-1 29 1 52.5t4.5 35.5t5 20t4.5 11l1 2q5 10 12.5 17.5t15 12.5t17.5 8t18.5 4.5t20.5 1.5t19.5 -0.5t19.5 -2t17 -2.5t15 -3.5t12 -2.5q24 4 65 22t51 28q33 -60 33 -83v-83v-38q18 8 27 -1q12 -11 2.5 -50.5t-29.5 -46.5q-1 -44 -23.5 -81.5
t-59.5 -58.5v-34l116 -39q34 -17 34 -33q0 -8 -8.5 -32.5t-16.5 -45.5z" />
    <glyph glyph-name="uniE609" unicode="&#xe609;" 
d="M246.5 28q-49.5 0 -84.5 35t-35 85t35 85l449 452q35 35 84.5 35t84.5 -35t35 -85t-35 -85l-449 -452q-35 -35 -84.5 -35zM696 680q-33 0 -56 -24l-450 -451q-23 -24 -23 -57t23 -56t56.5 -23t56.5 23l449 451q23 24 23 57t-23 56.5t-56 23.5zM345 134l-141 141l28 28
l141 -141zM92 -35l-28 28l98 99l28 -29zM941 -118h-774q-9 0 -14.5 6t-5.5 14.5t5.5 14t14.5 5.5h774q8 0 14 -5.5t6 -14t-6 -14.5t-14 -6z" />
    <glyph glyph-name="uniE60A" unicode="&#xe60a;" 
d="M514 648q-65 0 -127 -26.5t-106 -68t-73 -92.5t-34 -100q1 -1 0 -5t1.5 -11t5.5 -13.5t12 -11t22 -4.5q18 0 29.5 11t13.5 22l3 12q10 75 84 136.5t169 61.5q105 0 179.5 -76.5t74.5 -184.5t-74.5 -184.5t-179.5 -76.5q-98 0 -170 68l86 88q22 23 15.5 39t-38.5 16h-176
q-47 0 -61.5 -15t-14.5 -63v-181q0 -32 16 -39t38 16l73 76q98 -93 232 -93q92 0 170.5 46.5t124 127t45.5 175.5t-45.5 175.5t-124 127.5t-170.5 47z" />
    <glyph glyph-name="uniE60B" unicode="&#xe60b;" 
d="M886 713h-748q-30 0 -51.5 -21.5t-21.5 -51.5v-475q0 -30 21.5 -51.5t51.5 -21.5h76q10 0 17 -7t7 -17v-131q0 -19 8 -32q11 -18 32 -18q18 0 36 17l168 161q11 11 31 19t36 8h337q30 0 51.5 21.5t21.5 51.5v475q0 30 -21.5 51.5t-51.5 21.5zM910 165q0 -10 -7 -17
t-17 -7h-337q-25 0 -54 -11.5t-47 -29.5l-161 -155v123q0 30 -21.5 51.5t-51.5 21.5h-76q-10 0 -17.5 7t-7.5 17v475q0 10 7.5 17t17.5 7h748q10 0 17 -7t7 -17v-475zM512 428q-17 0 -29 -12t-12 -28.5t12 -28.5t29 -12t29 12t12 28.5t-12 28.5t-29 12zM718 428
q-17 0 -29 -12t-12 -28.5t12 -28.5t29 -12t28.5 12t11.5 28.5t-11.5 28.5t-28.5 12zM306 428q-17 0 -28.5 -12t-11.5 -28.5t11.5 -28.5t28.5 -12t29 12t12 28.5t-12 28.5t-29 12z" />
    <glyph glyph-name="uniE60C" unicode="&#xe60c;" 
d="M448 416h-193q37 72 105.5 116t151.5 44q121 0 206 -87l91 90q-59 61 -135.5 93t-161.5 32q-137 0 -246 -80.5t-150 -207.5h-116l224 -256zM800 416l-224 -256h193q-37 -72 -105.5 -116t-151.5 -44q-121 0 -206 87l-91 -90q59 -61 135.5 -93t161.5 -32q137 0 246 80.5
t150 207.5h116z" />
    <glyph glyph-name="uniE60D" unicode="&#xe60d;" horiz-adv-x="1201" 
d="M998 21q5 -15 7.5 -39t2.5 -48t-3.5 -45.5t-10.5 -32.5q-5 -7 -29 -15t-58.5 -15.5t-78 -14.5t-86 -12t-83 -8t-69.5 -3q-45 0 -106 6.5t-119 16t-102 19t-53 16.5q-11 8 -16.5 50t4.5 107q6 37 30.5 56.5t57.5 31t68 20.5t62 26q21 13 32.5 25.5t16.5 24.5t5 25.5
t-1 28.5q-2 24 -16 37.5t-31 27.5q-8 7 -14.5 20t-11.5 26q-5 15 -10 31q-7 2 -14 8q-6 5 -13 14t-12.5 26.5t-4 31t5.5 23.5q5 11 13 22q-1 38 4 77q4 33 14.5 69.5t31.5 65.5q19 28 43 46t48.5 28t49 14t48.5 4q29 0 56 -7t50.5 -18.5t42 -25t29.5 -27.5q25 -33 38 -72
t18 -74q6 -41 5 -81q7 -4 11 -13q4 -7 6.5 -18t0.5 -27q-3 -22 -9.5 -34.5t-14.5 -19.5q-9 -8 -19 -12q-4 -16 -10 -31q-5 -13 -11.5 -26t-14.5 -20q-9 -8 -17 -13.5t-14.5 -11.5t-10.5 -15t-6 -21q-3 -15 -2 -31t8 -31.5t23.5 -30t43.5 -25.5q26 -10 56 -17.5t58 -18.5
t50 -27t31 -43zM607 -146q5 0 15.5 6.5t21 16t18 18.5t7.5 14q0 6 -3 21.5t-7 33.5q-4 19 -8 36q-4 18 -7 29q10 8 17 18t7 20q0 8 -5.5 16.5t-12.5 14.5q-8 8 -18 15h-50q-11 -7 -18 -15q-6 -6 -11 -14t-5 -16q0 -6 7.5 -16.5t18.5 -19.5q-3 -9 -8 -26t-9.5 -36t-8 -36
t-3.5 -25q0 -5 7.5 -14t18.5 -18.5t21 -16t15 -6.5zM607 -146z" />
    <glyph glyph-name="uniE60E" unicode="&#xe60e;" 
d="M270 158q14 6 38.5 15t88.5 24.5t113 15.5q53 0 113 -14t94 -27l33 -14l80 -219q-161 -27 -320 -27q-72 0 -152 7t-124 14l-45 6zM510 649q68 0 122 -46.5t65 -116.5q1 -5 1 -16t-0.5 -23.5t-0.5 -15.5q0 -19 -13.5 -46t-36.5 -53.5t-60 -45.5t-77 -19t-77 19t-60 45.5
t-36.5 53.5t-13.5 46v55q10 71 63.5 117t123.5 46z" />
    <glyph glyph-name="uniE60F" unicode="&#xe60f;" 
d="M512 792q-102 0 -195.5 -40t-161 -107.5t-107.5 -161t-40 -195.5t40 -195.5t107.5 -161t161 -107.5t195.5 -40t195.5 40t161 107.5t107.5 161t40 195.5t-40 195.5t-107.5 161t-161 107.5t-195.5 40zM808 -68q-15 8 -83.5 26.5t-82.5 27.5q-20 13 -20 121l20 17
q6 47 14.5 63.5t18.5 41.5t16 42l6 17q20 15 20 40q0 12 -5 22t-10 14l-5 5q7 71 7 120q0 78 -47 120t-136 42q-92 0 -147.5 -40t-55.5 -122q0 -22 4 -52t8 -49l4 -19q-20 -15 -20 -41q0 -11 5 -21t10 -15l5 -4q24 -73 40 -101q5 -7 8.5 -22.5t4.5 -27.5l1 -13l20 -17
q1 -12 2 -29.5t-4 -50.5t-18 -41q-14 -9 -84.5 -28.5t-84.5 -27.5q5 -5 22 -17.5t62 -35.5t92 -37q-151 40 -248.5 164t-97.5 284q0 94 36.5 180t98.5 148t148 98.5t180 36.5t180 -36.5t148 -98.5t98.5 -148t36.5 -180q0 -105 -44.5 -198t-122.5 -158zM433 -168q-15 2 -33 7
q8 -2 33 -7zM433 -168z" />
    <glyph glyph-name="uniE610" unicode="&#xe610;" 
d="M754 696h-482q-84 0 -143.5 -59.5t-59.5 -143.5v-171q0 -84 59.5 -143.5t143.5 -59.5h52v-214l246 214h184q84 0 143 59.5t59 143.5v171q0 84 -59 143.5t-143 59.5zM300 326q-33 0 -56 23t-23 55.5t23 55.5t55.5 23t55.5 -23t23 -55.5t-23 -55.5t-55 -23zM512 326
q-33 0 -56 23t-23 55.5t23 55.5t55.5 23t55.5 -23t23 -55.5t-23 -55.5t-55 -23zM723 326q-32 0 -55 23t-23 55.5t23 55.5t55.5 23t55.5 -23t23 -55.5t-23 -55.5t-56 -23zM723 326z" />
    <glyph glyph-name="uniE611" unicode="&#xe611;" 
d="M1024 300q0 139 -68.5 257t-186.5 186.5t-257 68.5t-257 -68.5t-186.5 -186.5t-68.5 -257q0 -110 44 -207.5t121 -169.5q13 -16 38 -31q137 -104 309 -104q181 0 322 114q9 7 17 14q81 72 127 171.5t46 212.5zM48 300q0 192 136 328t328 136t328 -136t136 -328
q0 -168 -108 -297q-3 15 -8 26.5t-14.5 20t-16.5 14t-22.5 10t-24 6.5t-29.5 6t-31 6q-6 1 -22.5 4.5t-23 5t-20.5 5t-19.5 6.5t-15 8.5t-13 11t-8.5 14t-5.5 18.5t1 23.5t5.5 28.5q15 12 29.5 34.5t29.5 42.5t35 28q12 18 11.5 40.5t-11.5 35.5q-7 9 -15 10.5t-10 7.5
q-1 15 2.5 60.5t-0.5 73t-23 40.5q-9 5 -20 5q-3 0 -11 -0.5t-12 -0.5q-9 0 -15 3q-11 4 -23.5 22t-26.5 19h-21q-20 -14 -64 -21t-48 -8q-4 -2 -5 -2q-29 -9 -43 -36t-14 -88q0 -11 0.5 -33t0.5 -31q-25 -13 -26 -50q-1 -19 5 -34q3 -11 18 -24t20 -18q8 -10 22 -33.5
t22 -32.5q10 -9 19 -11v-68q-9 -12 -19 -20q-21 -18 -58.5 -29.5t-70 -17t-64.5 -22t-46 -43.5q-3 -6 -6 -11.5t-3 -6.5q-112 131 -112 302z" />
    <glyph glyph-name="uniE612" unicode="&#xe612;" 
d="M512 812q-139 0 -257 -68.5t-186.5 -186.5t-68.5 -257t68.5 -257t186.5 -186.5t257 -68.5t257 68.5t186.5 186.5t68.5 257t-68.5 257t-186.5 186.5t-257 68.5zM512 764q192 0 328 -136t136 -328q0 -170 -110 -300q-44 106 -140 171t-214 65t-214 -65t-140 -171
q-110 130 -110 300q0 192 136 328t328 136zM195 -39q35 101 121.5 164t195.5 63t196 -63t121 -164q-63 -59 -145 -92t-172 -33t-172 33t-145 92zM512 266q80 0 136 56t56 135.5t-56 136t-136 56.5t-136 -56.5t-56 -136t56 -135.5t136 -56zM512 602q60 0 102 -42.5t42 -102
t-42 -101.5t-102 -42t-102 42t-42 101.5t42 102t102 42.5z" />
    <glyph glyph-name="uniE613" unicode="&#xe613;" 
d="M710 489h-397q-25 0 -42.5 -17.5t-17.5 -42.5v-253q0 -24 17.5 -42t42.5 -18h160v-115l100 115h137q25 0 42.5 18t17.5 42v253q0 25 -17.5 42.5t-42.5 17.5zM753 176q0 -17 -12.5 -29.5t-30.5 -12.5h-145l-74 -86v86h-178q-17 0 -29.5 12.5t-12.5 29.5v253
q0 17 12.5 29.5t29.5 12.5h397q18 0 30.5 -12.5t12.5 -29.5v-253zM378.5 333q-12.5 0 -21.5 -8.5t-9 -21t9 -21.5t21.5 -9t21 9t8.5 21.5t-8.5 21t-21 8.5zM511.5 333q-12.5 0 -21 -8.5t-8.5 -21t8.5 -21.5t21 -9t21.5 9t9 21.5t-9 21t-21.5 8.5zM645.5 333
q-12.5 0 -21.5 -8.5t-9 -21t9 -21.5t21.5 -9t21 9t8.5 21.5t-8.5 21t-21 8.5zM535 719.5q0 -6.5 -4.5 -11t-11 -4.5t-11 4.5t-4.5 11t4.5 11t11 4.5t11 -4.5t4.5 -11zM604 711q-1 -6 -6 -10t-11.5 -3t-10 6.5t-2.5 11.5t6 10t11.5 3t10 -6.5t2.5 -11.5zM671 691
q-2 -6 -7.5 -9t-11.5 -0.5t-9 8t-1 11.5t7.5 9t11.5 1t9 -8t1 -12zM734 661q-7 -14 -20.5 -6.5t-6.5 21t20.5 6.5t6.5 -21zM791.5 621q-9.5 -12 -22 -3t-3 21.5t22 3t3 -21.5zM841 572.5q-11 -10.5 -21.5 0.5t0.5 21.5t21.5 -0.5t-0.5 -21.5zM883 516.5q-13 -8.5 -21.5 4
t4 21t21.5 -4t-4 -21zM915 454.5q-6 -2.5 -12 -0.5t-8.5 7.5t-0.5 11.5t8 9t12 1t8.5 -8t0.5 -12t-8 -8.5zM937 388q-6 -2 -11.5 1t-7.5 9.5t1 12t9 7t12 -1.5t7.5 -9t-1.5 -11.5t-9 -7.5zM947.5 319q-6.5 -1 -11.5 3t-5.5 10.5t3.5 11.5t10 5.5t11 -3.5t6 -10t-3 -11
t-10.5 -6zM947 249q-6 0 -10.5 5t-4 11.5t5 10.5t11 4t10.5 -5t4 -11t-5 -10.5t-11 -4.5zM935.5 180.5q-6.5 1.5 -10 6.5t-2 11.5t6.5 10t11.5 2t10 -6.5t2 -11.5t-6.5 -10t-11.5 -2zM913 114.5q-6 2.5 -8.5 8t-0.5 11.5t8 8.5t12 0.5t8.5 -8t0 -12t-8 -8.5t-11.5 0z
M880 52.5q-13 7.5 -5.5 21t21 6t5.5 -21t-21 -6zM837.5 -3q-11.5 10 -2 22t21.5 2t2 -22t-21.5 -2zM787 -50.5q-10 11.5 1.5 21.5t21.5 -1.5t-1.5 -21.5t-21.5 1.5zM729 -90q-8 13 5 21t21 -5t-5 -21t-21 5zM665.5 -119.5q-2.5 5.5 0 11.5t8.5 8.5t12 0t8.5 -8t0 -11.5
t-8.5 -8.5t-12 0t-8.5 8zM598.5 -138q-1.5 6 2 11.5t9.5 7t11.5 -2t7 -9.5t-2 -11.5t-9.5 -7t-11.5 2t-7 9.5zM529.5 -146q-0.5 6 3.5 11t10.5 5.5t11 -3.5t5 -10.5t-3.5 -11.5t-10.5 -5.5t-11 4t-5 10.5zM459.5 -142.5q0.5 6.5 5.5 10.5t11 3.5t10.5 -5.5t4 -11.5
t-5.5 -10.5t-11.5 -3.5t-10.5 5.5t-3.5 11.5zM391.5 -128q1.5 6 7 9.5t11.5 2t9.5 -7t1.5 -12t-7.5 -9.5t-11.5 -1.5t-9 7t-1.5 11.5zM326.5 -102.5q2.5 5.5 8 8t11.5 0t8.5 -8.5t0 -12t-8.5 -8t-12 0.5t-8 8.5t0.5 11.5zM266 -67q8 13 21 4.5t5 -21.5t-21 -4.5t-5 21.5z
M212.5 -22.5q10.5 11.5 22 1t1 -21.5t-22 -1t-1 21.5zM167 30.5q12 9.5 21.5 -2.5t-2.5 -21.5t-21.5 2.5t2.5 21.5zM129.5 89.5q13.5 7.5 21 -5.5t-5.5 -21t-21 5.5t5.5 21zM103 154.5q6 2.5 12 -0.5t8 -9t-0.5 -11.5t-8.5 -8t-12 0.5t-8 8.5t0.5 11.5t8.5 8.5zM87.5 222
q6.5 1 11.5 -2.5t6.5 -9.5t-2.5 -11.5t-10 -6.5t-11.5 2.5t-6.5 9.5t2.5 11.5t10 6.5zM82.5 292q6.5 0 11 -4.5t5 -10.5t-4 -11t-11 -5t-11 4.5t-5 10.5t4 11t11 5zM89 361.5q6 -0.5 10 -5.5t3 -11.5t-6 -10.5t-11 -3t-10 6t-3.5 11t6 10t11.5 3.5zM106.5 429
q6.5 -2 9.5 -7.5t1 -11.5t-7.5 -9t-12 -1.5t-9.5 7.5t-1 12t7.5 9t12 1zM135 493q13 -7 6.5 -20.5t-20.5 -7.5q-6 3 -8 9t1 12t9 8t12 -1zM172.5 551.5q12.5 -8.5 3.5 -21.5t-21.5 -4t-3.5 21.5t21.5 4zM220 603q11 -11 0 -22t-22 0t0 22t22 0zM274 646.5q9 -12.5 -3 -21.5
t-21.5 3.5t3 21.5t21.5 -3.5zM335 680.5q7 -13.5 -6.5 -20.5t-20.5 6.5t6.5 20.5t20.5 -6.5zM401 705q2 -6 -1 -12t-9 -8t-12 1t-7.5 9t1 12t8.5 7.5t12 -1t8 -8.5zM469 717.5q1 -6.5 -2.5 -11.5t-10 -6t-11.5 3t-6 10t3 11.5t10 6t11 -3t6 -10z" />
    <glyph glyph-name="uniE614" unicode="&#xe614;" 
d="M512 -212q-111 0 -207.5 40.5t-162.5 109.5t-104 163t-38 199q0 104 40.5 199t109 163.5t163.5 109t199 40.5t199 -40.5t163.5 -109t109 -163.5t40.5 -199q0 -105 -38 -199t-104 -163t-162.5 -109.5t-207.5 -40.5zM512 746q-91 0 -173.5 -35.5t-142 -95t-95 -142
t-35.5 -173.5q0 -85 30.5 -161.5t85.5 -137.5q32 16 57.5 19.5t67.5 20.5q107 44 107 48l1 82q-4 3 -9.5 9t-17 32t-15.5 61q-14 -4 -20.5 9.5t-8.5 32.5q0 2 -1 14t-1.5 20t0.5 18t4.5 14.5t10.5 2.5q-9 68 -6 90q4 51 49 91t113 43q77 -3 116.5 -41.5t44.5 -92.5
q2 -20 -7 -89q7 1 11 -3.5t4.5 -14.5t0.5 -18t-1.5 -20t-1.5 -14q-1 -18 -8 -32t-20 -10q-5 -34 -15.5 -59.5t-19.5 -33.5l-8 -9l1 -81q20 -12 107 -47q42 -18 67.5 -22t57.5 -20q55 61 85.5 137.5t30.5 161.5q0 91 -35.5 173.5t-95 142t-142 95t-173.5 35.5z" />
    <glyph glyph-name="uniE615" unicode="&#xe615;" 
d="M512 804q-102 0 -195.5 -40t-161 -107.5t-107.5 -161t-40 -195.5t40 -195.5t107.5 -161t161 -107.5t195.5 -40t195.5 40t161 107.5t107.5 161t40 195.5t-40 195.5t-107.5 161t-161 107.5t-195.5 40zM808 -56q-15 8 -83.5 26.5t-82.5 27.5q-13 8 -17.5 41t-4 50.5
t1.5 29.5l20 17q6 47 14.5 63.5t18.5 42t16 42.5l6 16q20 15 20 40q0 12 -5 22t-10 14l-5 5q7 71 7 120q0 78 -47 120t-136 42q-92 0 -147.5 -40t-55.5 -122q0 -22 4 -52t8 -49l4 -19q-20 -15 -20 -41q0 -11 5 -21t10 -15l5 -4q24 -73 40 -101q5 -7 8.5 -22.5t4.5 -27.5
l1 -13l20 -17q1 -12 2 -29.5t-4 -50.5t-18 -41q-14 -9 -84.5 -28.5t-84.5 -27.5q5 -5 22 -17.5t62 -35.5t92 -37q-151 40 -248.5 164t-97.5 284q0 94 36.5 180t98.5 148t148 98.5t180 36.5t180 -36.5t148 -98.5t98.5 -148t36.5 -180q0 -105 -44.5 -198t-122.5 -158z
M433 -156q-15 2 -33 7q8 -2 33 -7zM433 -156z" />
    <glyph glyph-name="uniE616" unicode="&#xe616;" 
d="M868 -145h-714q-37 0 -63 26t-26 63v714q0 37 26 63t63 26h714q37 0 63 -26t26 -63v-714q0 -37 -26 -63t-63 -26zM778 93q-4 14 -16 25.5t-29.5 21t-32.5 15.5t-37 14t-30 11q-9 4 -16 8.5t-11.5 8.5t-7 10.5t-3.5 9.5t-0.5 11t0.5 10t1 12l2 9l4 12q14 12 27 28l1 1v0
q14 19 24 42q26 9 32 44q5 30 -13 42q0 1 0.5 4.5t0.5 4.5q0 88 -42 145t-122 57q-81 0 -122 -56.5t-41 -145.5l1 -10q-16 -12 -12 -41q6 -34 31 -43q10 -24 24 -43v0q14 -17 28 -29q3 -7 4 -14q0 -6 2 -15.5t2.5 -15t-1 -12.5t-7.5 -13.5t-17 -13.5q-15 -10 -58 -24.5
t-71 -33t-32 -48.5q-5 -45 -3 -55.5t11 -17.5q12 -9 106 -20t156 -11q66 0 160.5 12t104.5 26q19 27 2 78z" />
    <glyph glyph-name="uniE617" unicode="&#xe617;" 
d="M894 747h-768q-27 0 -46 -19t-19 -46v-768q0 -27 19 -46t46 -19h768q27 0 46.5 19t19.5 46v768q0 27 -19.5 46t-46.5 19zM902 -39q0 -24 -16.5 -40.5t-40.5 -16.5h-669q-24 0 -40.5 16.5t-16.5 40.5v669q0 24 16.5 40.5t40.5 16.5h669q24 0 40.5 -16.5t16.5 -40.5v-669z
M588 75v69q10 8 20 24.5t14 29.5l5 13q0 10 5.5 17.5t11.5 10.5l6 2q14 14 14 35t-7 35l-7 15v98q-8 25 -25.5 44.5t-36 29.5t-36.5 16.5t-29 8.5l-12 1q-4 0 -11.5 -1.5t-28.5 -8t-38 -16.5t-35 -29.5t-26 -44.5v-98q-3 -6 -7.5 -16t-5.5 -32.5t13 -36.5q3 -1 6.5 -3
t10 -9.5t6.5 -17.5q15 -49 40 -67v-69q-6 -2 -16.5 -5t-40 -14t-56 -22t-59 -28t-55 -33.5t-37.5 -37t-13 -38.5h353h352q2 25 -25.5 53t-68 49.5t-82.5 39t-70 27t-29 9.5zM710 -54h-18v-18q0 -7 -5 -12t-12 -5t-12 5t-5 12v18h-18q-7 0 -12 5t-5 12t5 12t12 5h18v18
q0 7 5 11.5t12 4.5t12 -4.5t5 -11.5v-18h18q7 0 12 -5t5 -12t-5 -12t-12 -5z" />
    <glyph glyph-name="uniE618" unicode="&#xe618;" horiz-adv-x="1058" 
d="M528.5 722q88.5 0 168.5 -34.5t138.5 -92.5t92.5 -138.5t34 -168.5t-34 -168.5t-92.5 -138.5t-138.5 -92.5t-168.5 -34.5t-168.5 34.5t-138.5 92.5t-92.5 138.5t-34 168.5t34 168.5t92.5 138.5t138.5 92.5t168.5 34.5zM529 788q-102 0 -194.5 -39.5t-159.5 -106.5
t-106.5 -159.5t-39.5 -194.5t39.5 -194.5t106.5 -159.5t159.5 -106.5t194 -39.5t194 39.5t159.5 106.5t106.5 159.5t39.5 194.5t-39.5 194.5t-106.5 159.5t-159.5 106.5t-193.5 39.5zM528.5 521q50.5 0 86.5 -36t36 -87q0 -33 -17 -61.5t-45 -44.5q70 -20 115 -79t45 -133
q0 -7 -6 -13t-12 -9l-6 -3h-393q-24 11 -24 25q0 74 45 133t115 79q-28 16 -45 44.5t-17 61.5q0 51 36 87t86.5 36zM529 587q-79 0 -134 -55.5t-55 -133.5q0 -45 21 -86q-56 -40 -87.5 -101.5t-31.5 -130.5q0 -27 16.5 -49.5t46.5 -35.5l13 -6h421l13 6q30 13 46.5 35.5
t16.5 49.5q0 69 -31.5 130.5t-87.5 101.5q21 41 21 86q0 78 -55 133.5t-133 55.5z" />
    <glyph glyph-name="uniE619" unicode="&#xe619;" 
d="M512 804q-102 0 -195.5 -40t-161 -107.5t-107.5 -161t-40 -195.5t40 -195.5t107.5 -161t161 -107.5t195.5 -40t195.5 40t161 107.5t107.5 161t40 195.5t-40 195.5t-107.5 161t-161 107.5t-195.5 40zM808 -56q-15 8 -83.5 26.5t-82.5 27.5q-13 8 -17.5 41t-4 50.5
t1.5 29.5l20 17q6 47 14.5 63.5t18.5 42t16 42.5l6 16q20 15 20 40q0 12 -5 22t-10 14l-5 5q7 71 7 120q0 78 -47 120t-136 42q-92 0 -147.5 -40t-55.5 -122q0 -22 4 -52t8 -49l4 -19q-20 -15 -20 -41q0 -11 5 -21t10 -15l5 -4q24 -73 40 -101q5 -7 8.5 -22.5t4.5 -27.5
l1 -13l20 -17q1 -12 2 -29.5t-4 -50.5t-18 -41q-14 -9 -84.5 -28.5t-84.5 -27.5q5 -5 22 -17.5t62 -35.5t92 -37q-151 40 -248.5 164t-97.5 284q0 94 36.5 180t98.5 148t148 98.5t180 36.5t180 -36.5t148 -98.5t98.5 -148t36.5 -180q0 -105 -44.5 -198t-122.5 -158z
M433 -156q-15 2 -33 7q8 -2 33 -7zM433 -156z" />
    <glyph glyph-name="uniE61A" unicode="&#xe61a;" 
d="M512 792q-102 0 -195.5 -40t-161 -107.5t-107.5 -161t-40 -195.5t40 -195.5t107.5 -161t161 -107.5t195.5 -40t195.5 40t161 107.5t107.5 161t40 195.5t-40 195.5t-107.5 161t-161 107.5t-195.5 40zM808 -68q-15 8 -83.5 26.5t-82.5 27.5q-20 13 -20 121l20 17
q6 47 14.5 63.5t18.5 41.5t16 42l6 17q20 15 20 40q0 12 -5 22t-10 14l-5 5q7 71 7 120q0 78 -47 120t-136 42q-92 0 -147.5 -40t-55.5 -122q0 -22 4 -52t8 -49l4 -19q-20 -15 -20 -41q0 -11 5 -21t10 -15l5 -4q24 -73 40 -101q5 -7 8.5 -22.5t4.5 -27.5l1 -13l20 -17
q1 -12 2 -29.5t-4 -50.5t-18 -41q-14 -9 -84.5 -28.5t-84.5 -27.5q5 -5 22 -17.5t62 -35.5t92 -37q-151 40 -248.5 164t-97.5 284q0 94 36.5 180t98.5 148t148 98.5t180 36.5t180 -36.5t148 -98.5t98.5 -148t36.5 -180q0 -105 -44.5 -198t-122.5 -158zM433 -168q-15 2 -33 7
q8 -2 33 -7zM433 -168z" />
    <glyph glyph-name="uniE61B" unicode="&#xe61b;" 
d="M512 812q-104 0 -199 -40.5t-163.5 -109t-109 -163.5t-40.5 -199t40.5 -199t109 -163.5t163.5 -109t199 -40.5t199 40.5t163.5 109t109 163.5t40.5 199t-40.5 199t-109 163.5t-163.5 109t-199 40.5zM523 660q40 0 71.5 -9t51.5 -22t34.5 -35t21.5 -39t10.5 -44.5t4 -42.5
t0.5 -40q0 -32 -14.5 -72t-38.5 -77.5t-61.5 -63t-79 -25.5t-79 25.5t-62 62.5t-39 77.5t-14.5 72.5q0 25 0.5 40t4.5 42.5t10.5 44.5t21 39t34.5 35t51.5 22t71.5 9zM512 -184q-109 0 -205.5 46t-163.5 126q22 62 51 85q22 17 70 42.5t85.5 43t37.5 16.5l90 -171l16 42
l-25 51l51 51l50 -51l-25 -51l14 -41l92 170q143 -64 193 -102q29 -23 49 -72q-67 -86 -166.5 -135.5t-213.5 -49.5z" />
    <glyph glyph-name="uniE61C" unicode="&#xe61c;" 
d="M827 812h-630q-82 0 -139.5 -57.5t-57.5 -139.5v-630q0 -82 57.5 -139.5t139.5 -57.5h630q82 0 139.5 57.5t57.5 139.5v630q0 82 -57.5 139.5t-139.5 57.5zM945 -15q0 -49 -34.5 -83.5t-83.5 -34.5h-630q-49 0 -83.5 34.5t-34.5 83.5v630q0 49 34.5 83.5t83.5 34.5h630
q49 0 83.5 -34.5t34.5 -83.5v-630zM826 339h-275v275q0 17 -11.5 28.5t-27.5 11.5t-28 -11.5t-12 -28.5v-275h-274q-17 0 -28.5 -11.5t-11.5 -27.5t11.5 -27.5t28.5 -11.5h274v-275q0 -17 12 -28.5t28 -11.5t27.5 11.5t11.5 28.5v275h275q17 0 28.5 11.5t11.5 27.5
t-11.5 27.5t-28.5 11.5z" />
    <glyph glyph-name="uniE61D" unicode="&#xe61d;" 
d="M885 710h-746q-74 0 -74 -75v-521q0 -75 74 -75h448l111 -149l112 149h75q74 0 74 75v521q0 75 -74 75zM847 114h-74l-75 -112l-111 112h-410h-12q-20 -1 -23.5 2t-2.5 19v16v447v16q-1 16 2.5 19t23.5 2h12h670h12q20 1 23.5 -2t2.5 -19v-16v-447v-16q1 -16 -2.5 -19
t-23.5 -2h-12zM512 412q-23 0 -39 -16.5t-16 -39.5t16 -39.5t39 -16.5t39 16.5t16 39.5t-16 39.5t-39 16.5zM306.5 412q-22.5 0 -39 -16.5t-16.5 -39.5t16.5 -39.5t39 -16.5t39 16.5t16.5 39.5t-16.5 39.5t-39 16.5zM717 412q-23 0 -39 -16.5t-16 -39.5t16 -39.5t39 -16.5
t39.5 16.5t16.5 39.5t-16.5 39.5t-39.5 16.5z" />
    <glyph glyph-name="uniE61E" unicode="&#xe61e;" 
d="M66 781l1 -505h94v-189l183 183l-29 29l-113 -113v131h-95v423h610v-144h41v185h-692zM391 549h598v-506h-92v-191l-192 191h-314v506zM432 84h290l134 -134v134h92v424h-516v-424z" />
    <glyph glyph-name="uniE61F" unicode="&#xe61f;" 
d="M890 -212h-763q-52 0 -89.5 37.5t-37.5 89.5v763q0 54 38 94t90 40h512v-64h-512q-26 0 -45 -21.5t-19 -48.5v-763q0 -26 18.5 -44.5t44.5 -18.5h763q27 0 48.5 19t21.5 45v512h64v-512q0 -52 -40.5 -90t-93.5 -38zM510 96q-12 -12 -33 -16l-278 -138q-23 -10 -38.5 5.5
t-6.5 39.5l138 279q4 20 16 33l494 494q19 19 45.5 19t44.5 -19l113 -112q18 -19 18 -45t-18 -45zM215 26q-6 -11 2.5 -19.5t19.5 -3.5l172 104l-90 91zM375 231l68 -67l1 -2l1 -1h1v-1h1v-1h1v-1l1 -1h1v-1l1 -1h1l1 -1v-1l1 -1h1l1 -1l1 -1v-1l1 -1l1 -1l1 -1l1 -1l1 -1
l1 -1l1 -1l1 -1l360 360l-113 112l-359 -359q10 -11 22 -23zM937 658l-67 68q-10 9 -23 9t-22 -9l-66 -66l111 -114l67 67q10 10 10 23t-10 22z" />
    <glyph glyph-name="uniE620" unicode="&#xe620;" 
d="M561 691v-56v-27l26 -6q44 -12 82 -35l23 -14l19 19l41 41l72 -73l-42 -42l-18 -18l13 -23q21 -38 32 -81l6 -26h27h61v-103h-64h-26l-7 -25q-11 -40 -33 -77l-14 -23l19 -18l46 -47l-72 -72l-48 47l-18 19l-23 -13q-35 -20 -76 -31l-26 -6v-27v-68h-102v68v27l-26 6
q-40 11 -75 31l-23 13l-18 -19l-48 -47l-72 72l46 47l19 18l-14 23q-22 37 -33 77l-7 25h-26h-64v103h61h27l6 26q10 43 32 81l13 23l-19 18l-41 42l72 73l41 -41l18 -19l23 14q39 23 82 35l26 6v27v56h102zM510.5 145q63.5 0 108.5 45t45 108.5t-45 108.5t-108.5 45
t-108.5 -45t-45 -108.5t45 -108.5t108.5 -45zM596 725h-171v-90q-49 -13 -91 -39l-65 65l-121 -121l66 -66q-24 -42 -35 -90h-95v-171h98q12 -45 37 -85l-71 -71l121 -120l72 71q39 -22 84 -34v-102h171v102q44 12 84 34l72 -71l120 120l-70 71q24 40 37 85h98v171h-95
q-12 48 -36 90l66 66l-120 121l-65 -65q-43 26 -91 39v90zM510 179q-49 0 -84 35t-35 84.5t35 84.5t84.5 35t84.5 -35t35 -84.5t-35 -84.5t-85 -35z" />
    <glyph glyph-name="uniE621" unicode="&#xe621;" horiz-adv-x="1025" 
d="M899 779l-387 -388l-387 388q-22 21 -52 21t-51.5 -21.5t-21.5 -51.5t21 -52l388 -387l-388 -387q-21 -22 -21 -52t21.5 -51.5t51.5 -21.5t52 21l387 388l387 -388q22 -21 52 -21t51.5 21.5t21.5 51.5t-21 52l-388 387l388 387q21 22 21 52t-21.5 51.5t-51.5 21.5
t-52 -21z" />
    <glyph glyph-name="uniE622" unicode="&#xe622;" 
d="M9 812q-4 -47 -4 -82q0 -124 33 -242.5t92 -218.5t143 -184.5t184.5 -143.5t219 -91.5t242.5 -32.5q48 0 104 6v989h-1014zM769 188l-109 138l-128 -138h-117l187 215l-176 236h121l120 -169l123 169h105l-171 -225l173 -226h-128z" />
    <glyph glyph-name="uniE623" unicode="&#xe623;" 
d="M62 749v-899h900v899h-900zM738 160l-74 -74l-137 137l-138 -137l-73 74l137 137l-137 137l73 74l138 -137l137 137l74 -74l-137 -137zM738 160z" />
    <glyph glyph-name="uniE624" unicode="&#xe624;" horiz-adv-x="1000" 
d="M468 765q-89 0 -170 -34.5t-139.5 -93t-93.5 -140t-35 -170.5t35 -170t93.5 -139.5t139.5 -93t170 -34.5t170 34.5t139.5 93t93 139.5t34.5 170t-34.5 170.5t-93 140t-139.5 93t-170 34.5zM620 231q12 -11 0 -22l-34 -35q-11 -11 -22 0l-97 97l-97 -97q-11 -11 -22 0
l-34 35q-12 11 0 22l96 97l-96 96q-12 12 0 23l34 34q11 12 22 0l97 -96l97 96q11 11 22 0l34 -34q12 -11 0 -23l-96 -96z" />
    <glyph glyph-name="uniE625" unicode="&#xe625;" 
d="M512 747q-91 0 -174 -35t-142.5 -95t-95 -143t-35.5 -174t35.5 -174t95 -143t142.5 -95.5t174 -35.5t174 35.5t143 95.5t95.5 143t35.5 174t-35.5 174t-95.5 143t-143 95t-174 35zM512.5 -107q-110.5 0 -204.5 54.5t-148.5 148.5t-54.5 204t54.5 204t148.5 148.5
t204.5 54.5t204 -54.5t148 -148.5t54.5 -204t-54.5 -204t-148 -148.5t-204 -54.5zM648 436q-13 13 -31 13t-32 -13l-73 -74l-73 74q-13 13 -31.5 13t-31.5 -13t-13 -31.5t13 -32.5l73 -74l-69 -70v-1l-2 -1q-11 -14 -10.5 -31.5t13 -30t30 -13.5t30.5 11l1 1l1 1l69 70
l69 -70q13 -13 31.5 -13t31.5 13t13 32t-13 32l-69 70l73 74q13 14 13 32.5t-13 31.5z" />
    <glyph glyph-name="uniE626" unicode="&#xe626;" 
d="M552 299l231 232q8 8 8 19.5t-8 19.5t-19 8t-19 -8l-232 -232l-232 232q-8 8 -19 8t-19 -8t-8 -19.5t8 -19.5l231 -232l-231 -232q-8 -8 -8 -19t8 -19t19 -8t19 8l232 231l232 -231q8 -8 19 -8t19 8t8 19t-8 19z" />
    <glyph glyph-name="uniE627" unicode="&#xe627;" 
d="M926 458q-36 86 -102.5 152.5t-152.5 102.5q-90 38 -187.5 38t-186.5 -38q-86 -36 -152.5 -102.5t-103.5 -152.5q-37 -90 -37 -187.5t37 -186.5q37 -86 103.5 -152.5t152.5 -103.5q89 -37 186.5 -37t187.5 37q86 37 152.5 103.5t102.5 152.5q38 89 38 186.5t-38 187.5z
M483.5 -143q-112.5 0 -207.5 55.5t-150.5 150.5t-55.5 207.5t55.5 208t150.5 151t207.5 55.5t208 -55.5t151 -151t55.5 -208t-55.5 -207.5t-151 -150.5t-208 -55.5zM633 472l-154 -154l-154 154q-10 10 -24 10t-24 -10t-10 -24.5t10 -24.5l154 -153l-154 -155
q-10 -10 -10 -24t10 -24t24.5 -10t24.5 10l153 154l155 -154q10 -10 24 -10t24 10v1q10 10 10 24t-10 24l-154 154l154 154q10 10 10 24t-10.5 24t-24.5 10t-24 -10z" />
    <glyph glyph-name="uniE628" unicode="&#xe628;" 
d="M633 288l256 256q25 25 25 60.5t-25 60.5t-60.5 25t-60.5 -25l-256 -256l-256 256q-25 25 -60.5 25t-60.5 -25t-25 -60.5t25 -60.5l256 -256l-256 -256q-25 -25 -25 -60.5t25 -60.5t60.5 -25t60.5 25l256 256l256 -256q25 -25 60.5 -25t60.5 25t25 60.5t-25 60.5z" />
    <glyph glyph-name="uniE629" unicode="&#xe629;" horiz-adv-x="1025" 
d="M960 -28q6 -24 -3 -46t-27.5 -39t-45 -27t-57.5 -10q-193 -1 -346 -1h-348q-37 0 -65 13.5t-45 33t-22.5 42.5t1.5 41l12 30q6 13 13 30t15 35l39 94h117l-44 -129h659l-44 129h112q21 -52 39 -94q7 -19 14 -36.5t12.5 -31t9.5 -23.5t4 -11zM444 162q-19 22 -44 56
t-51.5 70t-53 70.5t-46.5 60.5q-24 27 -18.5 45t34.5 18q17 -1 44.5 0.5t45.5 1.5q21 0 26 12.5t5 32.5q0 23 -0.5 50t-0.5 56t-0.5 56.5t-0.5 50.5q0 11 1.5 22t7 20.5t16.5 15.5t29 6q22 0 40 0.5t41 0.5q34 0 46 -16t13 -51v-40q0 -23 0.5 -49.5t0.5 -53.5v-48
q0 -30 6 -48t27 -17q16 0 38 -1t38 -1q28 0 35.5 -14.5t-10.5 -38.5q-20 -25 -45.5 -59.5t-52.5 -72t-53 -73t-47 -60.5q-18 -24 -35 -24.5t-36 22.5z" />
    <glyph glyph-name="uniE62A" unicode="&#xe62a;" 
d="M91 794v-988h291h1h1h73v55h-91h-220v878h732v-603h-275v-330l2 1h19h22q99 30 173.5 102.5t108.5 171.5h2q0 3 1 8q0 1 0.5 2t0.5 2v12q1 5 1 7v24v658h-842zM658 -131v212h212q-29 -73 -84 -128t-128 -84zM274 391h476v-54h-476v54zM274 556h476v-55h-476v55z" />
    <glyph glyph-name="uniE62B" unicode="&#xe62b;" 
d="M408 447q-2 2 -6.5 5.5t-18.5 10.5t-28.5 10t-36.5 -0.5t-43 -15.5q-19 -12 -32 -28.5t-17.5 -32t-6.5 -29t-1 -22.5l1 -8q-7 -1 -17 -4t-36.5 -16.5t-46.5 -32t-36 -53.5t-16 -79q2 -113 110 -146q30 -10 55 -10h254v162h-80l135 145l134 -145h-80v-162h232q3 0 8.5 0.5
t21.5 3.5t31 8t34 16t33.5 25.5t26.5 39t16 54.5q3 45 -11 81.5t-36 56.5t-44 33.5t-38 17.5l-16 4v8q0 6 -0.5 22.5t-3 32.5t-8.5 38.5t-15 42.5t-24.5 41t-35.5 36.5t-49.5 27.5t-64.5 17q-52 5 -96.5 -9t-70.5 -37t-44.5 -49t-25.5 -42t-7 -18z" />
    <glyph glyph-name="uniE62C" unicode="&#xe62c;" 
d="M176 380l298 -299h1q15 -15 36 -15q24 0 40 19l287 287q22 15 22 42q0 22 -15 37t-36 15h-161v195q0 36 -25 61.5t-62 25.5h-100q-36 0 -61.5 -25.5t-25.5 -61.5v-195h-160q-21 0 -36 -15t-15 -37q0 -19 13 -34zM959 199q0 22 -15.5 37.5t-37.5 15.5t-37.5 -15.5
t-15.5 -37.5v-211h-682v211q0 22 -16 37.5t-38 15.5t-37.5 -15.5t-15.5 -37.5v-223v-70v-41q0 -5 3.5 -8.5t8.5 -3.5h871q5 0 8.5 3.5t3.5 8.5v41v293z" />
    <glyph glyph-name="uniE62D" unicode="&#xe62d;" 
d="M775 423q-1 0 -3.5 -0.5t-3.5 -0.5q7 30 7 54q0 88 -62 150.5t-150 62.5q-76 0 -134.5 -48t-74.5 -121q-31 10 -57 10q-89 0 -151 -62.5t-62 -150.5v-54q0 -75 47.5 -133.5t119.5 -73.5q-5 18 -7 32q-7 76 46 129l107 106q46 47 112.5 47t112.5 -47l107 -106
q53 -54 46 -128q-2 -17 -9 -38h9q67 0 113.5 46.5t46.5 112.5v53q0 67 -46.5 113.5t-113.5 46.5zM563 -109v160h53q16 0 29.5 9t19.5 23q3 8 4 16q2 25 -15 42l-107 107q-15 15 -37.5 15t-37.5 -15l-106 -107q-18 -17 -16 -42q1 -8 4 -16q6 -14 19.5 -23t29.5 -9h53v-160
h107z" />
    <glyph glyph-name="uniE62E" unicode="&#xe62e;" horiz-adv-x="1814" 
d="M2286 -2101q-5 -25 -22 -35q4 0 10 0.5t19.5 7.5t20.5 19zM1174 59h120v-60h-120v60zM905 118h-448v-239h897v239h-449zM816 716v-359h-149l238 -239l239 239h-149v359h-179z" />
    <glyph glyph-name="uniE62F" unicode="&#xe62f;" 
d="M612 520h-304q-25 1 -32.5 8t-7.5 32v26v27q-1 30 32 32h16h597q29 0 37.5 -8.5t8.5 -37.5q1 -59 -6.5 -69t-51.5 -10h-19h-270zM613 239h-294q-36 0 -43.5 7.5t-7.5 42.5v44q0 29 29 30h16h600q30 0 38 -8t8 -39v-1q1 -58 -7 -67.5t-54 -8.5h-1h-1h-1h-13h-269zM613 -42
h-301q-29 0 -36.5 7.5t-7.5 36.5v42q0 23 7.5 30t30.5 7h615q22 0 29.5 -8t8.5 -30q1 -20 0 -47q0 -23 -8 -30.5t-31 -7.5h-307zM129 515q-27 0 -45.5 18t-18.5 44.5t18.5 45t44.5 18.5q27 0 45.5 -17.5t19.5 -43.5q0 -28 -18 -46.5t-46 -18.5zM130 -48q-27 -1 -46 17
t-19 44q-1 26 17.5 45t44.5 20q27 1 46 -17.5t20 -45.5q0 -26 -18.5 -44.5t-44.5 -18.5zM65 297q0 26 19.5 44.5t45.5 17.5q26 0 44.5 -18.5t18.5 -44.5t-19.5 -45t-46.5 -18q-25 1 -44 20t-18 44z" />
    <glyph glyph-name="uniE630" unicode="&#xe630;" 
d="M741 415zM522 616q-4 4 -10 4t-10 -4l-204 -192q-2 -2 -1 -5t4 -3h132v-195q0 -6 4.5 -10.5t10.5 -4.5h128q6 0 10.5 4.5t4.5 10.5v195h132q3 0 4 3t-1 5zM900 145l-126 88h-79l132 -107l-145 2q-8 0 -12 -8l-40 -97h-236l-40 97q-4 8 -12 8h-144l131 105h-79l-126 -88
q-15 -9 -22.5 -26.5t-3.5 -33.5l23 -128q4 -16 19.5 -27.5t32.5 -11.5h678q17 0 32.5 11.5t19.5 27.5l23 128q4 16 -3.5 33.5t-22.5 26.5zM900 145z" />
    <glyph glyph-name="uniE631" unicode="&#xe631;" 
d="M741 285zM896 108l-8 16l-112 224q-8 16 -26 16h-93q-7 0 -12 -5.5t-5 -12.5v-29q0 -8 5 -13t12 -5h30q17 0 25 -15l80 -161q3 -7 0 -11.5t-10 -4.5h-126q-8 0 -13 -5t-5 -12v-91q0 -7 -5 -12.5t-12 -5.5h-219q-7 0 -12.5 5.5t-5.5 12.5v91q0 7 -5 12t-12 5h-129
q-7 0 -10 4.5t1 11.5l83 161q8 15 25 15h29q7 0 12 5.5t5 12.5v29q0 7 -5 12t-12 5h-93q-17 0 -25 -15l-113 -225q-2 -4 -3.5 -7.5t-2.5 -5.5l-1 -2v-18v-158q0 -7 5 -12t12 -5h734q7 0 12 5t5 12v159v17zM353 441h95v-268h128v268h101q7 0 8.5 4t-3.5 9l-158 179
q-5 5 -11.5 5t-11.5 -5l-155 -179q-4 -5 -2.5 -9t9.5 -4z" />
    <glyph glyph-name="uniE632" unicode="&#xe632;" 
d="M822 353v15q0 101 -71.5 172.5t-172.5 71.5q-72 0 -131 -38t-89 -101q-31 24 -69 24q-47 0 -80 -33t-33 -80q0 -17 5 -34q-36 -21 -57 -59t-21 -83q0 -67 48.5 -115.5t116.5 -49.5h125q-100 86 -113 114q-21 46 14 88l143 170q28 34 71 34t72 -34l143 -171q35 -42 14 -87
q-4 -8 -17 -22.5t-29.5 -29.5t-32.5 -29t-26 -23l-11 -9q136 -1 139 -1q67 0 114 47.5t47 114.5q0 49 -27.5 89.5t-71.5 58.5zM670 202l-143 170q-7 9 -19 9q-10 0 -18 -10l-143 -168q-8 -10 -5 -15.5t15 -5.5h75h29v-165q0 -12 9 -20.5t21 -8.5h35q11 0 18.5 8.5t7.5 20.5
v165h33h75q12 0 15 5.5t-5 14.5z" />
    <glyph glyph-name="uniE633" unicode="&#xe633;" 
d="M65 619h894v-149h-894v149zM63 371h894v-149h-894v149zM63 98h894v-149h-894v149zM63 98z" />
    <glyph glyph-name="uniE634" unicode="&#xe634;" 
d="M549 -72v445h-74v-445l-102 102l-51 -52l190 -190l190 190l-51 52zM802 555q-13 109 -96 183t-194 74t-194 -74t-96 -183q-93 -6 -157.5 -74.5t-64.5 -162.5q0 -98 69.5 -167.5t168.5 -69.5h128v73h-128q-68 0 -116.5 48t-48.5 116q0 65 44.5 112.5t109.5 51.5l60 4l7 60
q10 83 72.5 138t145.5 55t145 -55t73 -138l7 -60l60 -4q65 -4 109.5 -51.5t44.5 -112.5q0 -68 -48.5 -116t-116.5 -48h-128v-73h128q99 0 168.5 69.5t69.5 167.5q0 94 -64.5 162.5t-157.5 74.5z" />
    <glyph glyph-name="uniE635" unicode="&#xe635;" 
d="M64 608h127v-128h-127v128zM276 608h682v-128h-682v128zM64 352h127v-127h-127v127zM276 352h682v-127h-682v127zM64 97h127v-128h-127v128zM276 97h682v-128h-682v128z" />
    <glyph glyph-name="uniE636" unicode="&#xe636;" 
d="M152.5 652q-26.5 0 -45 -18.5t-18.5 -45t18.5 -44.5t45 -18t45 18t18.5 44.5t-18.5 45t-45 18.5zM937 655h-623q-11 0 -19 -7.5t-8 -18.5v-72q0 -10 8 -18t19 -8h623q10 0 18 8t8 18v72q0 11 -8 18.5t-18 7.5zM937 380h-623q-11 0 -19 -7.5t-8 -18.5v-71q0 -11 8 -18.5
t19 -7.5h623q10 0 18 7.5t8 18.5v71q0 11 -8 18.5t-18 7.5zM937 105h-623q-11 0 -19 -7.5t-8 -18.5v-71q0 -11 8 -18.5t19 -7.5h623q10 0 18 7.5t8 18.5v71q0 11 -8 18.5t-18 7.5zM152.5 377q-26.5 0 -45 -18.5t-18.5 -44.5t18.5 -44.5t45 -18.5t45 18.5t18.5 44.5
t-18.5 44.5t-45 18.5zM152.5 102q-26.5 0 -45 -18.5t-18.5 -44.5t18.5 -44.5t45 -18.5t45 18.5t18.5 44.5t-18.5 44.5t-45 18.5z" />
    <glyph glyph-name="uniE637" unicode="&#xe637;" 
d="M118 350q-5 14 6 25l371 372q7 7 16.5 7t16.5 -7l373 -372q11 -11 5 -25.5t-22 -14.5h-190v-314q0 -10 -7 -16.5t-16 -6.5h-317q-10 0 -16.5 6.5t-6.5 16.5v314h-191q-10 0 -17 7q-3 4 -5 8zM889 178v-255h-754v255h-77v-258q0 -30 22 -52t52 -22h760q30 0 52 22t22 52
v258h-77z" />
    <glyph glyph-name="uniE638" unicode="&#xe638;" horiz-adv-x="1025" 
d="M670 233l24 25l-164 164l-164 -164l24 -25l123 124v-499h34v498zM838 470v4v5q0 109 -77.5 186.5t-186.5 77.5q-78 0 -142 -41.5t-97 -109.5q-29 15 -61 15q-50 0 -88 -32.5t-47 -81.5q-61 -21 -99.5 -74t-38.5 -119q0 -85 60 -145t145 -60h205v34h-205q-71 0 -121 50
t-50 121q0 54 32 98.5t84 62.5l19 7l3 20q6 37 34.5 61t66.5 24q24 0 46 -11l31 -16l15 32q28 60 85 95.5t123 35.5q95 0 162.5 -67.5t67.5 -162.5v-3v-5l-1 -35h35q63 0 108 -45t45 -108t-45 -108t-108 -46h-8h-181v-34h189q78 0 132.5 55t54.5 132.5t-55 132.5t-132 55z
" />
    <glyph glyph-name="uniE639" unicode="&#xe639;" horiz-adv-x="1025" 
d="M547 -102v465h-34v-465l-123 123l-24 -25l164 -164l164 164l-24 25zM838 500v4v4q0 110 -77.5 187.5t-186.5 77.5q-78 0 -142 -41.5t-97 -109.5q-29 14 -61 14q-50 0 -88 -32t-47 -81q-61 -21 -99.5 -74t-38.5 -120q0 -85 60 -144.5t145 -60.5h205v35h-205q-71 0 -121 50
t-50 120q0 55 32 99.5t84 62.5l19 6l3 20q6 37 34.5 61t66.5 24q24 0 46 -11l31 -15l15 31q28 60 85 95.5t123 35.5q95 0 162.5 -67.5t67.5 -162.5v-2v-5l-1 -35h35q63 0 108 -45.5t45 -108.5t-45 -108t-108 -45h-8h-181v-35h189q78 1 132.5 56t54.5 132.5t-55 132.5
t-132 55z" />
    <glyph glyph-name="uniE63A" unicode="&#xe63a;" 
d="M760 670h-179q-2 10 -10.5 17t-19.5 7h-2v7q0 19 -13.5 32.5t-32.5 13.5h-40q-19 0 -32.5 -13.5t-13.5 -32.5v-7h-3q-11 0 -19 -7t-11 -17h-178q-22 0 -37 -15.5t-15 -36.5v-714q0 -22 15 -37t37 -15h554q21 0 36 15t15 37v714q0 21 -15 36.5t-36 15.5zM449 701q0 6 4 10
t10 4h40q6 0 10 -4t4 -10v-7h-68v7zM768 -96q0 -9 -8 -9h-554q-9 0 -9 9v714q0 9 9 9h178v-1q0 -12 8.5 -21t21.5 -9h137q13 0 22 9t9 21v1h178q8 0 8 -9v-714zM676 451h-228q-8 0 -13.5 -5.5t-5.5 -13t5.5 -13t13.5 -5.5h228q7 0 12.5 5.5t5.5 13t-5.5 13t-12.5 5.5z
M676 318h-228q-8 0 -13.5 -5t-5.5 -13t5.5 -13t13.5 -5h228q7 0 12.5 5t5.5 13t-5.5 13t-12.5 5zM676 180h-228q-8 0 -13.5 -5.5t-5.5 -13t5.5 -13t13.5 -5.5h228q7 0 12.5 5.5t5.5 13t-5.5 13t-12.5 5.5zM676 47h-228q-8 0 -13.5 -5.5t-5.5 -13t5.5 -12.5t13.5 -5h228
q7 0 12.5 5t5.5 12.5t-5.5 13t-12.5 5.5zM367 478l-46 -46l-28 28q-8 9 -16.5 0.5t-0.5 -17.5l37 -36q3 -4 8.5 -4t8.5 4l54 54q9 8 0.5 17t-17.5 0zM367 337l-46 -46l-28 28q-8 9 -16.5 0.5t-0.5 -17.5l37 -36q3 -4 8.5 -4t8.5 4l54 54q9 8 0.5 16.5t-17.5 0.5zM330 162z
M300 162q0 12 9 21t21.5 9t21 -9t8.5 -21t-8.5 -21t-21 -9t-21.5 9t-9 21zM330 25zM300 25q0 12 9 21t21.5 9t21 -9t8.5 -21t-8.5 -21t-21 -9t-21.5 9t-9 21z" />
    <glyph glyph-name="uniE63B" unicode="&#xe63b;" 
d="M470 -4v148h-94l145 176l144 -175l-95 -1v-148h223q5 0 14.5 1t34 9t45.5 22t42 45t30 73q-1 28 -1 38.5t-2 23t-2.5 13.5t-6 14.5t-8.5 21.5q-18 25 -25 33.5t-26.5 22.5t-49.5 28q24 108 -46 193q-38 46 -96 62t-103 7q-45 -8 -88 -37.5t-69 -88.5q-24 25 -54 38.5
t-79 12.5q-30 -1 -67.5 -26t-53.5 -73q-16 -39 -3 -91q-39 -12 -75 -50q-21 -23 -34.5 -66t-2.5 -87q28 -116 150 -139h91h109h53z" />
    <glyph glyph-name="uniE63C" unicode="&#xe63c;" 
d="M382 513h479q28 0 47.5 19.5t19.5 47t-19.5 47.5t-47.5 20h-479q-28 0 -47.5 -20t-19.5 -47.5t19.5 -47t47.5 -19.5zM187 647h-8q-28 0 -47.5 -20t-19.5 -47.5t19.5 -47t47.5 -19.5h8q28 0 47.5 19.5t19.5 47t-19.5 47.5t-47.5 20zM861 379h-479q-28 0 -47.5 -20
t-19.5 -47.5t19.5 -47t47.5 -19.5h479q28 0 47.5 19.5t19.5 47t-19.5 47.5t-47.5 20zM187 379h-8q-28 0 -47.5 -20t-19.5 -47.5t19.5 -47t47.5 -19.5h8q28 0 47.5 19.5t19.5 47t-19.5 47.5t-47.5 20zM861 111h-479q-28 0 -47.5 -20t-19.5 -47.5t19.5 -47t47.5 -19.5h479
q28 0 47.5 19.5t19.5 47t-19.5 47.5t-47.5 20zM187 111h-8q-28 0 -47.5 -20t-19.5 -47.5t19.5 -47t47.5 -19.5h8q28 0 47.5 19.5t19.5 47t-19.5 47.5t-47.5 20z" />
    <glyph glyph-name="uniE63D" unicode="&#xe63d;" 
d="M320 428h128v-352q0 -13 9.5 -22.5t22.5 -9.5t22.5 9.5t9.5 22.5v352h128q18 0 27.5 15t1.5 31l-160 320q-9 18 -29 18t-29 -18l-160 -320q-8 -16 1.5 -31t27.5 -15zM928 460q-13 0 -22.5 -9.5t-9.5 -22.5v-448q0 -27 -19 -45.5t-45 -18.5h-704q-26 0 -45 18.5t-19 45.5
v448q0 13 -9.5 22.5t-22.5 9.5t-22.5 -9.5t-9.5 -22.5v-448q0 -53 37.5 -90.5t90.5 -37.5h704q53 0 90.5 37.5t37.5 90.5v448q0 13 -9.5 22.5t-22.5 9.5z" />
    <glyph glyph-name="uniE63E" unicode="&#xe63e;" 
d="M1002 673h-627q-8 0 -14 6t-6 14q0 9 6 15t14 6h627q9 0 15 -6t6 -15q0 -8 -6 -14t-15 -6zM1002 351h-627q-8 0 -14 6t-6 15q0 8 6 14t14 6h627q9 0 15 -6t6 -14q0 -9 -6 -15t-15 -6zM1002 32h-627q-8 0 -14 6t-6 15q0 8 6 14t14 6h627q9 0 15 -6t6 -14q0 -9 -6 -15
t-15 -6zM248 780q-6 6 -14.5 6t-14.5 -6l-129 -129l-53 53q-6 6 -14.5 6t-14.5 -6t-6 -14.5t6 -14.5l65 -67q2 -2 4 -3q14 -9 26 3l145 143q6 6 6 14.5t-6 14.5zM249 460q-6 6 -14.5 6t-14.5 -6l-129 -129l-53 53q-6 6 -14.5 6t-14.5 -6t-6 -14.5t6 -14.5l65 -67q2 -2 4 -3
q14 -9 26 3l145 143q6 6 6 14.5t-6 14.5zM129.5 -70q-50.5 0 -86 35.5t-35.5 86t35.5 86t86 35.5t86 -35.5t35.5 -86t-35.5 -86t-86 -35.5zM129.5 132q-33.5 0 -57 -23.5t-23.5 -57t23.5 -57t57 -23.5t57 23.5t23.5 57t-23.5 57t-57 23.5z" />
    <glyph glyph-name="uniE63F" unicode="&#xe63f;" horiz-adv-x="1027" 
d="M481 375h64v-491h-64v491zM492 396l45 -45l-129 -132l-46 45zM516 417l148 -150l-46 -45l-148 150zM353 60h-157q-13 0 -22.5 9t-9.5 22.5t9.5 23t22.5 9.5h157q13 0 22.5 -9.5t9.5 -23t-9.5 -22.5t-22.5 -9zM845 60h-173q-13 0 -22.5 9t-9.5 22.5t9.5 23t22.5 9.5h173
q13 0 22.5 -9.5t9.5 -23t-9.5 -22.5t-22.5 -9zM196 60q-66 0 -121 50q-35 32 -55 76.5t-20 88.5q0 63 36 116t97 80q12 6 24.5 1t17.5 -17t0.5 -24.5t-16.5 -17.5q-43 -19 -69 -56.5t-26 -81.5q0 -31 15 -63t40 -55q40 -37 85 -33q13 1 23 -7.5t11 -21.5t-7.5 -23.5
t-21.5 -11.5h-13zM150 410h-3q-13 2 -21.5 12t-7.5 23q5 55 50 94.5t103 39.5q45 0 82 -25q11 -8 13.5 -21t-5 -24t-20.5 -13.5t-24 5.5q-21 14 -46 14q-33 0 -59.5 -22.5t-29.5 -53.5q-1 -12 -10 -20.5t-22 -8.5zM787 393q-3 0 -7 1q-13 2 -20 13.5t-4 24.5q4 18 4 37
q0 75 -57 128t-137 53q-68 0 -120.5 -38.5t-68.5 -99.5q-4 -13 -15.5 -19.5t-24 -3t-19.5 15t-3 23.5q21 83 91 134.5t160 51.5q107 0 182.5 -71.5t75.5 -173.5q0 -26 -6 -51q-2 -11 -11 -18t-20 -7zM833 59q-13 0 -22.5 9.5t-9.5 23t9.5 22.5t22.5 9q54 0 92 40t38 96.5
t-38 96.5t-92 40q-19 0 -37 -6q-13 -4 -24.5 2.5t-15.5 19t2 24t19 15.5q27 9 56 9q80 0 137 -59t57 -141.5t-57 -141.5t-137 -59z" />
    <glyph glyph-name="uniE640" unicode="&#xe640;" horiz-adv-x="1000" 
d="M431 634q54 48 127 56q63 7 120 -19q45 -20 77 -57q62 -68 58 -161q66 -8 105 -61q30 -39 32 -89v-9q-2 -56 -38 -97q-45 -53 -115 -54h-79h-78q-11 0 -16 5t-5 12.5t5 11.5q4 6 16 6h77h78q37 0 68 21q33 23 45 60q18 49 -7 95q-14 28 -41 45.5t-58 18.5q-16 1 -21 7
q-5 5 -4 17q7 67 -29 124q-34 55 -94 78q-67 25 -133 3q-40 -14 -71.5 -44t-47.5 -70q-4 -14 -16 -14q-7 -1 -18 8q-33 30 -77 20q-26 -6 -45.5 -27.5t-21.5 -48.5q-1 -4 -0.5 -7.5t-0.5 -8t-3 -7.5q-3 -5 -19 -10q-48 -18 -73 -63q-17 -33 -15 -69q2 -53 40 -90
q38 -38 93 -38h142q11 0 17 -6q4 -5 3.5 -12t-4.5 -12q-5 -5 -18 -5h-68h-68q-26 0 -47 6q-66 17 -101 76q-23 37 -25 82v10q2 38 18 70q30 60 93 83q4 46 35 77q32 33 78 37q41 3 77 -20q19 40 53 70zM496 316q0 8 6.5 14t14.5 4q7 -1 10.5 -7t3.5 -12v-153v-152l31 32
q21 20 25 25q12 12 24 2q7 -4 7 -12.5t-6 -14.5l-98 -98l-46 46q-33 33 -52 51q-8 9 -6 16q0 7 5 11.5t12 4.5t17 -10l25 -25q18 -18 27 -28v306z" />
    <glyph glyph-name="uniE641" unicode="&#xe641;" 
d="M399 459q-2 2 -6 5.5t-17.5 10t-28 9.5t-35.5 0t-42 -15q-58 -36 -55 -108q0 -8 1 -8q-6 -1 -16 -4t-35.5 -16t-45 -31t-35.5 -52t-16 -76q1 -31 10.5 -55.5t23 -40t31.5 -27t33 -17t31 -8.5t22 -3.5t9 -0.5l313 1l-145 131l80 -1v159h103l1 -159l78 -1l-117 -130h264
q3 0 8 0.5t21 3.5t30.5 7.5t32.5 15.5t32.5 25.5t26 38t15.5 52.5q3 44 -11.5 79.5t-33.5 54t-44 32.5t-35.5 17t-16.5 4q0 3 0.5 8t-0.5 21t-3 32t-8 37.5t-15 40.5t-24 39.5t-34.5 36t-47.5 27t-62 15.5q-51 5 -94 -8.5t-68.5 -36t-43 -47.5t-24.5 -40.5t-7 -17.5z" />
    <glyph glyph-name="uniE642" unicode="&#xe642;" 
d="M340 513v125q0 49 30.5 79t78.5 30h126q49 0 79 -30t31 -79q0 -164 -1 -259q0 -7 2.5 -9.5t9.5 -2.5h113q9 0 17 -2q21 -4 9 -23q-5 -9 -12 -16l-208 -208q-12 -12 -67 -65q-5 -5 -12 -10q-23 -16 -46 0q-14 10 -27 23q-140 140 -261 262q-6 6 -15 21q-7 11 6 14
q12 3 22 4h114q7 0 9.5 2.5t2.5 8.5q-1 21 -1 135zM64 92h63q6 0 6 -8v-2v-60v-60v-13q2 -12 10 -20t20 -10h12h675q11 0 17 2q25 6 25 36v122q0 9 2 11t11 2h56v-11v-122q-1 -48 -31 -78t-77 -30q-341 -1 -681 0q-47 0 -77.5 30t-30.5 78v122v11z" />
    <glyph glyph-name="uniE643" unicode="&#xe643;" 
d="M845 367q1 14 1 16q0 109 -77 186t-186 77q-77 0 -141 -41.5t-96 -108.5q-33 25 -74 25q-50 0 -85.5 -35.5t-35.5 -85.5q0 -18 6 -36q-40 -23 -62.5 -63.5t-22.5 -89.5q0 -73 51.5 -124.5t125.5 -52.5l85 5l-56 64q-39 46 -15 95q10 24 32 37t51 13h37v96q0 44 32 77
t75 33h37q42 0 72 -33t30 -77v-96h42q28 0 50 -14t33 -37q22 -48 -16 -93l-56 -65q93 -3 96 -3q72 0 123 50t51 122q0 53 -29.5 96t-77.5 63zM671 173h-81h-35v171q0 14 -8 26t-20 12h-37q-13 0 -23 -12t-10 -26v-171h-31h-80q-13 0 -16.5 -7.5t4.5 -17.5l154 -183
q8 -11 20 -11t21 10l153 184q9 10 5.5 17.5t-16.5 7.5z" />
    <glyph glyph-name="uniE644" unicode="&#xe644;" 
d="M155 -147h714v90h-714v-90zM691 434v313h-358v-313h-178v-45l357 -312l357 312v45h-178z" />
    <glyph glyph-name="uniE645" unicode="&#xe645;" 
d="M923 116l-33 -183h-756l-33 183h-84v-292h991v292h-85zM902 442h-248v106h-284v-106h-245l386 -413zM654 730h-284v-38h284v38zM654 658h-284v-73h284v73z" />
    <glyph glyph-name="uniE646" unicode="&#xe646;" 
d="M912 491q-61 62 -148 68q-40 71 -109 113q-75 47 -164 47q-118 0 -206 -77q-80 -70 -101 -174q-61 -17 -100 -68t-39 -116q0 -78 55 -134q45 -46 109 -55v-2h127q11 0 18.5 7.5t7.5 18t-7.5 18t-18.5 7.5h-99h-2q-58 1 -98.5 42t-40.5 98q0 51 32.5 90t82.5 48l18 3l3 19
q13 95 87 159q74 65 172 65q74 0 137 -39q46 -29 77 -73q-34 -6 -64 -22q-49 -25 -81 -69q-7 -8 -5 -18.5t10.5 -17t19 -5t16.5 10.5q25 34 63 53q39 20 83 20q76 0 129.5 -53t53.5 -128.5t-53.5 -129t-129.5 -53.5h-57q-11 0 -18.5 -7.5t-7.5 -18t7.5 -18t18.5 -7.5h57
q97 0 165.5 68t68.5 165t-69 165zM628 4l-90 -86v333q0 11 -7 18.5t-18 7.5t-18.5 -7.5t-7.5 -18.5v-333l-89 86q-8 7 -18.5 7t-18 -7.5t-7 -18t7.5 -18.5l133 -128l2 -2q1 0 2 -1t2 -1q1 -1 2 -1h1q1 -1 2 -1q1 -1 2 -1h2h1h2v0v0h2h3q1 0 2 1q1 0 2 1q1 0 2 1h1q1 0 2 1
t2 1l2 2l132 128q8 8 8 18.5t-7 18t-18 7.5t-18 -7z" />
    <glyph glyph-name="uniE647" unicode="&#xe647;" 
d="M390 443q-2 2 -6.5 5t-17.5 10t-27 9.5t-35 -0.5t-42 -15q-29 -18 -42.5 -46.5t-12.5 -48.5l1 -20q-6 -1 -16 -4t-35 -15.5t-44.5 -30.5t-35 -51.5t-15.5 -75.5q0 -31 9.5 -55.5t23 -39.5t31.5 -26.5t33 -17t31 -8.5t21.5 -3.5t8.5 -0.5l310 1l-143 130l79 -1v157l102 1
l1 -158l78 -1l-117 -129h262q3 0 8.5 0.5t21 3.5t30 7.5t32.5 15t32 25t25.5 38t16.5 52.5q2 43 -11.5 78t-34.5 54t-42.5 32t-36.5 17l-15 4q-2 1 0 13t-2 33.5t-8.5 46t-19 51.5t-34 49.5t-53.5 39.5t-76 23q-51 5 -93.5 -8.5t-67.5 -36.5t-43 -46.5t-24 -40.5z" />
    <glyph glyph-name="uniE648" unicode="&#xe648;" 
d="M969 -43q6 -24 -2.5 -45t-26 -37t-42.5 -25t-54 -9q-184 -1 -329 -1h-330q-35 0 -61.5 12.5t-42.5 31t-21.5 40.5t1.5 39q6 14 11 29q5 11 12 28q7 16 15 33l37 89h110l-41 -122h625l-42 122h106q16 -38 37 -89q7 -18 14 -34q5 -12 12 -30q5 -13 8.5 -22t3.5 -10z
M480 136q-18 22 -42 54t-49 66q-23 32 -50 67q-25 33 -44 57q-22 26 -17.5 43t32.5 17q16 -1 42 0.5t44 1.5q19 0 24 12t5 31v47q-1 28 -1 53v54q-1 28 -1 48q0 10 1.5 20.5t7 19.5t15.5 14.5t28 5.5q21 0 37 1q18 1 39 1q32 0 43.5 -15.5t12.5 -48.5v-38v-47q1 -25 1 -51
v-45q0 -28 5.5 -45t26.5 -17q14 0 35 -0.5t37 -0.5q26 0 33.5 -14.5t-10.5 -36.5q-18 -23 -43 -56q-25 -35 -50 -69q-24 -34 -50 -69q-25 -33 -44 -58q-18 -22 -34 -22.5t-33 20.5h-1zM480 136z" />
    <glyph glyph-name="uniE649" unicode="&#xe649;" 
d="M124 377q-11 11 -5 25.5t21 14.5h190v313q0 10 7 17t17 7h316q10 0 16.5 -7t6.5 -17v-314h191q10 0 16 -6q4 -4 6 -8q5 -14 -6 -25l-371 -372q-7 -7 -16.5 -7t-16.5 7zM889 178v-255h-754v255h-77v-257q0 -31 22 -53t52 -22h760q30 0 52 22t22 53v257h-77z" />
    <glyph glyph-name="uniE64A" unicode="&#xe64a;" 
d="M195 166q-58 29 -93.5 84.5t-35.5 122.5q0 90 61 156t150 73q26 64 84 103.5t129 39.5t128.5 -39t83.5 -102q13 1 26 1q95 0 162.5 -67t67.5 -163q0 -68 -37 -124.5t-97 -84.5h-143v290h-363v-290h-123zM401 390v-282h-98l197 -253l197 253h-99v282h-197z" />
    <glyph glyph-name="uniE64B" unicode="&#xe64b;" 
d="M320 -84h-128v320h128v-192h448v192h128v-192v-128h-576zM546 169l-224 252l126 1v6v64v128h192v-128v-64v-5h126z" />
    <glyph glyph-name="uniE64C" unicode="&#xe64c;" 
d="M161.5 398q40.5 0 69.5 -28.5t29 -69.5t-29 -69.5t-69.5 -28.5t-69 28.5t-28.5 69.5t28.5 69.5t69 28.5zM512 398q41 0 69.5 -28.5t28.5 -69.5t-28.5 -69.5t-69.5 -28.5t-69.5 28.5t-28.5 69.5t28.5 69.5t69.5 28.5zM862.5 398q40.5 0 69 -28.5t28.5 -69.5t-28.5 -69.5
t-69 -28.5t-69.5 28.5t-29 69.5t29 69.5t69.5 28.5z" />
    <glyph glyph-name="uniE64D" unicode="&#xe64d;" 
d="M176 191q-47 0 -79.5 33t-32.5 79t32.5 79t79 33t79.5 -33t33 -79t-33 -79t-79 -33zM511 191q-46 0 -79 33t-33 79t33 79t79.5 33t79 -33t32.5 -79t-32.5 -79t-79.5 -33zM847 191q-46 0 -79 33t-33 79t33 79t79 33t79 -33t33 -79t-33 -79t-79 -33zM847 191z" />
    <glyph glyph-name="uniE64E" unicode="&#xe64e;" 
d="M417 -1q-22 0 -36 15q-15 15 -14.5 35.5t15.5 35.5l226 217l-227 215q-15 14 -15.5 34.5t13.5 35.5q15 16 36 16q20 0 35 -14l264 -250q12 -11 15 -27t-5 -31q0 -1 -1 -3q-1 0 -1 -1q-3 -6 -6 -9h-1q-1 -2 -2 -3l-262 -252q-14 -14 -34 -14zM512 748q-91 0 -174 -35.5
t-143 -95.5t-95.5 -143t-35.5 -174t35.5 -174t95.5 -143t143 -95.5t174 -35.5t174 35.5t143 95.5t95.5 143t35.5 174t-35.5 174t-95.5 143t-143 95.5t-174 35.5zM512 -76q-102 0 -188.5 50.5t-137 137t-50.5 188.5t50.5 188.5t137 137t188.5 50.5t188.5 -50.5t137 -137
t50.5 -188.5t-50.5 -188.5t-137 -137t-188.5 -50.5z" />
    <glyph glyph-name="uniE64F" unicode="&#xe64f;" 
d="M192 301zM64 301q0 53 37.5 90t90.5 37t90.5 -37t37.5 -90t-37.5 -90.5t-90.5 -37.5t-90.5 37.5t-37.5 90.5zM512 301zM384 301q0 53 37.5 90t90 37t90 -37t37.5 -90t-37.5 -90.5t-90 -37.5t-90 37.5t-37.5 90.5zM831 300zM703 300q0 53 37.5 90.5t90.5 37.5t90.5 -37.5
t37.5 -90.5t-37.5 -90.5t-90.5 -37.5t-90.5 37.5t-37.5 90.5z" />
    <glyph glyph-name="uniE650" unicode="&#xe650;" 
d="M64 288q0 -91 35.5 -174t95.5 -143t143 -95.5t174 -35.5t174 35.5t143 95.5t95 143t35 174t-35 174t-95 143t-143 95t-174 35t-174 -35t-143 -95t-95.5 -143t-35.5 -174zM656 337l47 -49l-210 -224l-46 50l163 174l-163 173l46 50z" />
    <glyph glyph-name="uniE651" unicode="&#xe651;" 
d="M128 402q-32 0 -54.5 23t-22.5 54v205q0 32 22.5 54.5t54.5 22.5h205q31 0 54 -22.5t23 -54.5v-205q0 -31 -23 -54t-54 -23h-205zM461 479v205q0 53 -37.5 90.5t-90.5 37.5h-205q-53 0 -90.5 -37.5t-37.5 -90.5v-205q0 -53 37.5 -90.5t90.5 -37.5h205q53 0 90.5 37.5
t37.5 90.5zM896 402h-205q-31 0 -54 23t-23 54v205q0 32 23 54.5t54 22.5h205q32 0 54.5 -22.5t22.5 -54.5v-205q0 -31 -22.5 -54t-54.5 -23zM1024 684q0 53 -37.5 90.5t-90.5 37.5h-205q-53 0 -90.5 -37.5t-37.5 -90.5v-205q0 -53 37.5 -90.5t90.5 -37.5h205
q53 0 90.5 37.5t37.5 90.5v205zM333 -161h-205q-32 0 -54.5 22.5t-22.5 54.5v205q0 31 22.5 54t54.5 23h205q31 0 54 -23t23 -54v-205q0 -32 -23 -54.5t-54 -22.5zM461 121q0 53 -37.5 90.5t-90.5 37.5h-205q-53 0 -90.5 -37.5t-37.5 -90.5v-205q0 -53 37.5 -90.5
t90.5 -37.5h205q53 0 90.5 37.5t37.5 90.5v205zM691 -161q-31 0 -54 22.5t-23 54.5v205q0 31 23 54t54 23h205q32 0 54.5 -23t22.5 -54v-205q0 -32 -22.5 -54.5t-54.5 -22.5h-205zM1024 -84v205q0 53 -37.5 90.5t-90.5 37.5h-205q-53 0 -90.5 -37.5t-37.5 -90.5v-205
q0 -53 37.5 -90.5t90.5 -37.5h205q53 0 90.5 37.5t37.5 90.5z" />
    <glyph glyph-name="uniE652" unicode="&#xe652;" 
d="M652 301h-93v102q0 7 -5 12t-12 5h-68q-7 0 -12 -5t-5 -12v-102l-93 -1q-6 0 -8 -4v-1v-1v-2v0v-1q0 -1 1 -2v-1h1v-1l140 -157l1 -1h1v-1q1 0 2 -1h1q4 -1 7 1l1 2v0l147 157l1 1v1q0 1 1 2v1v0v1q0 8 -8 8zM474 437h68q7 0 12 5t5 12v17q0 7 -5 12t-12 5h-68
q-7 0 -12 -5t-5 -12v-17q0 -7 5 -12t12 -5zM508.5 674q-101.5 0 -187.5 -50t-136 -136t-50 -187.5t50 -187.5t136 -136t187.5 -50t187.5 50t136 136t50 187.5t-50 187.5t-136 136t-187.5 50zM508.5 -5q-126.5 0 -216 89.5t-89.5 216t89.5 216t216 89.5t216 -89.5t89.5 -216
t-89.5 -216t-216 -89.5z" />
    <glyph glyph-name="uniE653" unicode="&#xe653;" 
d="M623 476v256h-255v-256h-256l389 -447l378 447h-256zM943 -163h-895v256h128v-128h639v128h128v-256z" />
    <glyph glyph-name="uniE654" unicode="&#xe654;" 
d="M764 393h-23v-273h-482v273h-22q-10 0 -17 -7t-7 -17v-272q0 -10 7 -17t17 -7h527q10 0 17 7t7 17v272q0 10 -7 17t-17 7zM621 360h-96v265h-48v-265h-96l121 -172z" />
    <glyph glyph-name="uniE655" unicode="&#xe655;" 
d="M507.5 173q-21.5 0 -37.5 15l-146 146q-9 9 -9 21t9 20.5t21 8.5t20 -8l143 -142l142 142q8 8 20.5 8t21 -8.5t8.5 -20.5t-9 -21l-146 -146q-16 -15 -37.5 -15zM508 178q-12 0 -21 9t-9 21v372q0 12 9 20.5t21 8.5t20.5 -8.5t8.5 -20.5v-372q0 -12 -8.5 -21t-20.5 -9z
M290 -54q-50 0 -86 35.5t-36 86.5v341q0 51 36 87t86 36q13 0 21.5 -8.5t8.5 -21t-8.5 -21t-21.5 -8.5q-26 0 -44.5 -18.5t-18.5 -45.5v-341q0 -26 18.5 -45t44.5 -19h435q26 0 45 19t19 45v341q0 27 -19 45.5t-45 18.5q-12 0 -20.5 8.5t-8.5 21t8.5 21t20.5 8.5
q50 0 86 -36t36 -87v-341q0 -51 -36 -86.5t-86 -35.5h-435z" />
    <glyph glyph-name="uniE656" unicode="&#xe656;" 
d="M514 157q0 -10 -8.5 -17t-20.5 -7t-20.5 7t-8.5 17v414q0 9 8.5 16t20.5 7t20.5 -7t8.5 -16v-414zM505 202q11 -11 11 -25.5t-11 -25.5q-10 -10 -25 -10t-25 10l-152 152q-11 10 -11 25t11 25q10 11 25 11t25 -11zM618 353q10 11 25 11t25 -11q11 -10 11 -25t-11 -25
l-151 -152q-11 -10 -25.5 -10t-25.5 10q-10 11 -10 25.5t10 25.5zM778 50q0 -14 -10 -24.5t-25 -10.5h-485q-15 0 -25 10.5t-10 24.5q0 15 10 25t25 10h485q15 0 25 -10t10 -25z" />
    <glyph glyph-name="uniE657" unicode="&#xe657;" 
d="M550 156l155 172q13 15 13 35q0 21 -15 36.5t-36 15.5q-23 0 -39 -17l-65 -73v339q0 22 -15 37t-36.5 15t-36.5 -15t-15 -37v-339l-65 73q-15 17 -38 17q-22 0 -37 -15.5t-15 -36.5q0 -20 13 -35l155 -172q16 -17 39 -17t38 17zM856 194v-207h-689v207q0 21 -15 36.5
t-36.5 15.5t-36.5 -15.5t-15 -36.5v-258q0 -22 15 -37t37 -15h792q21 0 36 15t15 37v258q0 21 -15 36.5t-36.5 15.5t-36.5 -15.5t-15 -36.5z" />
    <glyph glyph-name="uniE658" unicode="&#xe658;" 
d="M237 343l241 -241q14 -14 34 -14t34 14l241 241q14 14 14 34t-14 34t-34 14t-34 -14l-159 -159v414q0 20 -14 34t-34 14t-34 -14t-14 -34v-414l-159 159q-14 14 -34 14t-34 -14t-14 -34t14 -34zM873 0q0 -21 -15 -36t-36 -15h-620q-21 0 -36 15t-15 36q0 22 15 37t36 15
h620q21 0 36 -15t15 -37z" />
    <glyph glyph-name="uniE659" unicode="&#xe659;" 
d="M768 812q49 0 94.5 -18.5t80.5 -50.5t56 -74.5t21 -91.5v-150h-123v122q0 64 -36 99.5t-97 35.5q-55 0 -88.5 -35.5t-33.5 -99.5v-124h-128v152q0 49 19.5 91.5t53.5 74.5t80 50.5t101 18.5zM766 118v-87v-48q0 -27 -9.5 -51.5t-26.5 -42t-39.5 -27.5t-50.5 -10h-514
q-28 0 -50.5 9.5t-38.5 26.5t-24.5 39.5t-8.5 47.5v323q0 29 19.5 48.5t46.5 19.5h629q29 0 48 -19.5t19 -48.5v-180z" />
    <glyph glyph-name="uniE65A" unicode="&#xe65a;" horiz-adv-x="1000" 
d="M517.5 658q86.5 0 135 -66.5t48.5 -162.5q58 0 58 1q0 77 -28.5 141t-84 104t-128.5 40t-130 -40.5t-86.5 -105t-29.5 -140.5h58q0 94 50.5 161.5t137 67.5zM786 429q0 -4 -0.5 -8.5t-7 -12t-20.5 -7.5h-56q-3 -1 -8.5 -0.5t-13.5 7.5t-8 20h-314q0 -3 -0.5 -7.5t-8 -12
t-19.5 -7.5h-56q-13 0 -20 7t-8 14l-2 7q-2 0 -6 -0.5t-13.5 -3.5t-17 -8.5t-13.5 -17.5t-6 -28v-395q0 -3 0.5 -7t3.5 -14.5t8.5 -18.5t18 -14.5t29.5 -6.5h538q2 0 6 0.5t14 3.5t17.5 8.5t13.5 17t6 26.5v400l-8 24q-16 34 -49 34zM530 146l-1 -115l-56 -1l-1 115
q-17 0 -31 15.5t-19 31.5l-5 16q0 21 8.5 37t21 23.5t25 12t21.5 5.5l9 1q21 0 37.5 -8t25 -19t13.5 -22.5t7 -18.5l1 -8q0 -17 -14 -33t-28 -24z" />
    <glyph glyph-name="uniE65B" unicode="&#xe65b;" 
d="M376 424h-126v147q0 48 19 89.5t52.5 73t79 49.5t99.5 18q48 0 92.5 -18t79 -49.5t55 -73t20.5 -89.5v-147h-121v119q0 63 -35 97.5t-95 34.5q-54 0 -87 -34.5t-33 -97.5v-119zM807 364q27 0 46.5 -19.5t19.5 -46.5v-310q0 -27 -9.5 -50.5t-26 -41t-39 -27.5t-49.5 -10
h-505q-27 0 -49 10t-37.5 26.5t-24 38.5t-8.5 47v317q0 27 19 46.5t46 19.5h617z" />
    <glyph glyph-name="uniE65C" unicode="&#xe65c;" 
d="M780 425h-58v112q0 87 -61.5 148.5t-148.5 61.5t-148.5 -61.5t-61.5 -148.5v-112h-58q-21 0 -36 -15t-15 -36v-470q0 -21 15 -36t36 -15h536q21 0 36 15t15 36v470q0 21 -15 36t-36 15zM356 537q0 65 45.5 111t110.5 46t110.5 -46t45.5 -111v-112h-312v112z" />
    <glyph glyph-name="uniE65D" unicode="&#xe65d;" 
d="M782 377v105q0 110 -78 188.5t-188.5 78.5t-189 -78.5t-78.5 -188.5v-105h-5q-44 0 -75.5 -31t-31.5 -75v-314q0 -44 31.5 -75.5t75.5 -31.5h539q44 0 75 31.5t31 75.5v314q0 44 -31 75t-75 31zM398 482q0 48 34.5 82t82.5 34t82.5 -34t34.5 -82v-105h-234v105zM553 63
v-1q4 -13 6 -19t3 -13t-1.5 -9.5t-7.5 -2.5h-81q-6 0 -8.5 2t-2 7.5t1.5 9.5t5 14q2 8 4 12l16 51q-26 15 -26 45q0 21 15 35.5t36 14.5t35.5 -14.5t14.5 -35.5q0 -31 -27 -45z" />
    <glyph glyph-name="uniE65E" unicode="&#xe65e;" 
d="M832 362h-70h-93h-308h-99h-70q-11 0 -19.5 -8t-8.5 -20v-454q0 -11 8.5 -19.5t19.5 -8.5h640q11 0 19.5 8.5t8.5 19.5v454q0 12 -8.5 20t-19.5 8zM361 497v0q0 63 45.5 108t108.5 45t108.5 -45t45.5 -108v0v-135h93v135q-1 104 -74 177.5t-176 73.5t-176 -73.5
t-74 -177.5v-135h99v135z" />
    <glyph glyph-name="uniE65F" unicode="&#xe65f;" 
d="M832 362h-70h-93h-308h-99h-70q-11 0 -19.5 -8t-8.5 -20v-454q0 -11 8.5 -19.5t19.5 -8.5h640q11 0 19.5 8.5t8.5 19.5v454q0 12 -8.5 20t-19.5 8zM361 497v0q0 63 45.5 108t108.5 45t108.5 -45t45.5 -108v0v-135h93v135q-1 104 -74 177.5t-176 73.5t-176 -73.5
t-74 -177.5v-135h99v135z" />
    <glyph glyph-name="uniE660" unicode="&#xe660;" 
d="M806 342h-53v107q0 99 -70.5 169.5t-169.5 70.5h-2q-99 0 -169.5 -70.5t-70.5 -169.5v-107h-53q-16 0 -27.5 -11.5t-11.5 -27.5v-353q0 -16 11.5 -27.5t27.5 -11.5h588q16 0 27.5 11.5t11.5 27.5v353q0 16 -11.5 27.5t-27.5 11.5zM337 449q0 72 51 123.5t123 51.5h2
q72 0 123 -51.5t51 -123.5v-107h-350v107z" />
    <glyph glyph-name="uniE661" unicode="&#xe661;" 
d="M828 381h-72v168q0 105 -74.5 180t-180 75t-180.5 -75t-75 -180v-168h-72q-26 0 -44.5 -18.5t-18.5 -44.5v-459q0 -26 18.5 -44.5t44.5 -18.5h654q26 0 44.5 18.5t18.5 44.5v459q0 26 -18.5 44.5t-44.5 18.5zM537 77v-100q0 -9 -9 -9h-54q-8 0 -8 9v100
q-20 10 -31.5 28.5t-11.5 40.5q0 33 23 56t55.5 23t55.5 -23t23 -56q0 -22 -12 -40.5t-31 -28.5zM658 381h-314v164q0 65 46 111t111 46t111 -46t46 -111v-164z" />
    <glyph glyph-name="uniE662" unicode="&#xe662;" 
d="M828 381h-72v168q0 105 -74.5 180t-180 75t-180.5 -75t-75 -180v-168h-72q-26 0 -44.5 -18.5t-18.5 -44.5v-459q0 -26 18.5 -44.5t44.5 -18.5h654q26 0 44.5 18.5t18.5 44.5v459q0 26 -18.5 44.5t-44.5 18.5zM537 77v-100q0 -9 -9 -9h-54q-8 0 -8 9v100
q-20 10 -31.5 28.5t-11.5 40.5q0 33 23 56t55.5 23t55.5 -23t23 -56q0 -22 -12 -40.5t-31 -28.5zM658 381h-314v164q0 65 46 111t111 46t111 -46t46 -111v-164z" />
    <glyph glyph-name="uniE663" unicode="&#xe663;" 
d="M173 -148h678q19 0 32 13t13 31v424q0 18 -13 31t-32 13h-43v62q0 63 -23 126t-62 105q-41 42 -95.5 66.5t-115.5 24.5v0q-61 0 -115.5 -24.5t-95.5 -66.5q-39 -41 -62 -104.5t-23 -126.5v-62h-38h-5q-19 0 -32 -13t-13 -31v-424q0 -18 13 -31t32 -13zM322 426
q0 43 15 88t41 72v1q56 59 134 59v0q78 0 134 -59v-1q26 -27 41 -72t15 -88v-62h-35h-310h-35v62z" />
    <glyph glyph-name="uniE664" unicode="&#xe664;" 
d="M173 -148h678q19 0 32 13t13 31v424q0 18 -13 31t-32 13h-43v62q0 63 -23 126t-62 105q-41 42 -95.5 66.5t-115.5 24.5v0q-61 0 -115.5 -24.5t-95.5 -66.5q-39 -41 -62 -104.5t-23 -126.5v-62h-38h-5q-19 0 -32 -13t-13 -31v-424q0 -18 13 -31t32 -13zM322 426
q0 43 15 88t41 72v1q56 59 134 59v0q78 0 134 -59v-1q26 -27 41 -72t15 -88v-62h-35h-310h-35v62z" />
    <glyph glyph-name="uniE665" unicode="&#xe665;" 
d="M782 354v154q0 105 -75 180t-181 75h-2h-2h-2h-3q-106 0 -180.5 -75t-74.5 -180v-154h-91v-529h704v529h-93zM389 508q0 52 37.5 89.5t90.5 37.5h6h3q53 0 90.5 -37.5t37.5 -89.5v-154h-265v154z" />
    <glyph glyph-name="uniE666" unicode="&#xe666;" 
d="M173 -148h678q19 0 32 13t13 31v424q0 18 -13 31t-32 13h-43v62q0 63 -23 126t-62 105q-41 42 -95.5 66.5t-115.5 24.5v0q-61 0 -115.5 -24.5t-95.5 -66.5q-39 -41 -62 -104.5t-23 -126.5v-62h-38h-5q-19 0 -32 -13t-13 -31v-424q0 -18 13 -31t32 -13zM322 426
q0 43 15 88t41 72v1q56 59 134 59v0q78 0 134 -59v-1q26 -27 41 -72t15 -88v-62h-35h-310h-35v62z" />
    <glyph glyph-name="uniE667" unicode="&#xe667;" 
d="M839 364h-499v155q0 77 55 131t133 54t132.5 -54t54.5 -131v-49h51v49q0 99 -70 168.5t-168.5 69.5t-168 -69.5t-69.5 -168.5v-155h-74q-23 0 -39.5 -16.5t-16.5 -40.5v-431q0 -24 16.5 -40.5t39.5 -16.5h623q24 0 40.5 16.5t16.5 40.5v431q0 24 -16.5 40.5t-40.5 16.5z
M841 -85q0 -19 -14 -32.5t-34 -13.5h-530q-20 0 -34 13.5t-14 32.5v352q0 19 14 32.5t34 13.5h27l50 -1v1h453q20 0 34 -13.5t14 -32.5v-352z" />
    <glyph glyph-name="uniE668" unicode="&#xe668;" 
d="M601 730q-55 20 -109.5 12.5t-99.5 -33t-77 -71t-42 -102.5q-3 -18 10 -29t28.5 -8t18.5 21q17 94 91.5 139t164.5 14q17 -5 28 6.5t7.5 28.5t-20.5 22zM758 536q-6 41 -27 81q-10 15 -24.5 15t-24.5 -14.5t-2 -30.5q16 -29 21 -67q2 -11 13.5 -17.5t22.5 -2.5
q25 6 21 36zM805 3v312q0 34 -23.5 57.5t-56.5 23.5h-419q-33 0 -56.5 -23.5t-23.5 -57.5v-377q0 -33 23.5 -56.5t56.5 -23.5h419q33 0 56.5 23.5t23.5 56.5v64v1z" />
    <glyph glyph-name="uniE669" unicode="&#xe669;" 
d="M893 684q29 0 49 -20t20 -49v-52q0 -29 -20 -48.5t-49 -19.5h-760q-29 0 -48.5 19.5t-19.5 48.5v52q0 29 19.5 49t48.5 20h760zM893 363q29 0 49 -19.5t20 -48.5v-52q0 -29 -20 -49t-49 -20h-760q-29 0 -48.5 20t-19.5 49v52q0 29 19.5 48.5t48.5 19.5h760zM893 43
q29 0 49 -20t20 -49v-52q0 -29 -20 -48.5t-49 -19.5h-760q-29 0 -48.5 19.5t-19.5 48.5v52q0 29 19.5 49t48.5 20h760z" />
    <glyph glyph-name="uniE66A" unicode="&#xe66a;" 
d="M893 684q29 0 49 -20t20 -49v-52q0 -29 -20 -48.5t-49 -19.5h-760q-29 0 -48.5 19.5t-19.5 48.5v52q0 29 19.5 49t48.5 20h760zM893 363q29 0 49 -19.5t20 -48.5v-52q0 -29 -20 -49t-49 -20h-760q-29 0 -48.5 20t-19.5 49v52q0 29 19.5 48.5t48.5 19.5h760zM893 43
q29 0 49 -20t20 -49v-52q0 -29 -20 -48.5t-49 -19.5h-760q-29 0 -48.5 19.5t-19.5 48.5v52q0 29 19.5 49t48.5 20h760z" />
    <glyph glyph-name="uniE66B" unicode="&#xe66b;" 
d="M274 318h549v-55h-549v55zM274 -11h549v-55h-549v55zM91 647h732v-54h-732v54z" />
    <glyph glyph-name="uniE66C" unicode="&#xe66c;" 
d="M0 579h233v233h-233v-233zM396 579h233v233h-233v-233zM792 812v-233h233v233h-233zM0 183h233v233h-233v-233zM396 183h233v233h-233v-233zM792 183h233v233h-233v-233zM0 -213h233v233h-233v-233zM396 -213h233v233h-233v-233zM792 -213h233v233h-233v-233z" />
    <glyph glyph-name="uniE66D" unicode="&#xe66d;" 
d="M127 672h321v-320h-321v320zM576 672h321v-320h-321v320zM127 224h321v-321h-321v321zM576 224h321v-321h-321v321z" />
    <glyph glyph-name="uniE66E" unicode="&#xe66e;" 
d="M0 812h1024v-80h-1024v80zM0 357h1024v-80h-1024v80zM0 -132h1024v-80h-1024v80z" />
    <glyph glyph-name="uniE66F" unicode="&#xe66f;" 
d="M61 715h927v-144h-927v144zM61 375h927v-145h-927v145zM61 34h927v-144h-927v144z" />
    <glyph glyph-name="uniE670" unicode="&#xe670;" horiz-adv-x="1025" 
d="M464 484q0 -20 14 -34t34 -14t34 14t14 34t-14 34t-34 14t-34 -14t-14 -34zM560 277.5q0 -19.5 -14 -33.5t-34 -14t-34 14t-14 33.5t14 33.5t34 14t34 -14t14 -33.5zM464 71q0 -20 14 -34t34 -14t34 14t14 34t-14 34t-34 14t-34 -14t-14 -34zM512 -198q-99 0 -189 38.5
t-155 103.5t-103.5 155t-38.5 189t38.5 189t103.5 155t155 103.5t189 38.5t189 -38.5t155 -103.5t103.5 -155t38.5 -189t-38.5 -189t-103.5 -155t-155 -103.5t-189 -38.5zM512 723q-88 0 -169 -34.5t-139 -92.5t-92.5 -139t-34.5 -169t34.5 -169t92.5 -139t139 -92.5
t169 -34.5t169 34.5t139 92.5t92.5 139t34.5 169t-34.5 169t-92.5 139t-139 92.5t-169 34.5z" />
    <glyph glyph-name="uniE671" unicode="&#xe671;" 
d="M481 330h-365v365h365v-365zM176 390h245v245h-245v-245zM481 -95h-365v365h365v-365zM176 -35h245v245h-245v-245zM547 656h361v-60h-361v60zM547 429h361v-61h-361v61zM547 231h361v-60h-361v60zM547 4h361v-60h-361v60z" />
    <glyph glyph-name="uniE672" unicode="&#xe672;" 
d="M730 219q34 0 57.5 23.5t23.5 57.5t-23.5 57.5t-57.5 23.5t-57.5 -23.5t-23.5 -57.5t23.5 -57.5t57.5 -23.5zM730 343q18 0 30.5 -12.5t12.5 -30.5t-12.5 -30.5t-30.5 -12.5t-30.5 12.5t-12.5 30.5t12.5 30.5t30.5 12.5zM430 300q0 -34 24 -57.5t57.5 -23.5t57.5 23.5
t24 57.5t-24 57.5t-57.5 23.5t-57.5 -23.5t-24 -57.5zM554 300q0 -18 -12.5 -30.5t-30 -12.5t-30.5 12.5t-13 30.5t13 30.5t30.5 12.5t30 -12.5t12.5 -30.5zM292.5 381q-33.5 0 -57.5 -23.5t-24 -57.5t24 -57.5t57.5 -23.5t57.5 23.5t24 57.5t-24 57.5t-57.5 23.5z
M292.5 257q-17.5 0 -30 12.5t-12.5 30.5t12.5 30.5t30 12.5t30.5 -12.5t13 -30.5t-13 -30.5t-30.5 -12.5zM53 298.5q0 -93.5 37 -179t98.5 -147.5t147 -98.5t179.5 -36.5t179.5 36.5t147.5 98.5t98.5 147.5t36.5 179t-36.5 179t-98.5 147.5t-147.5 98.5t-179.5 36.5
t-179.5 -36.5t-147 -98.5t-98.5 -147.5t-37 -179zM939 298.5q0 -114.5 -57 -212t-154.5 -154.5t-212.5 -57t-212.5 57t-154 154.5t-56.5 212t56.5 212t154 154.5t212.5 57t212.5 -57t154.5 -154.5t57 -212z" />
    <glyph glyph-name="uniE673" unicode="&#xe673;" 
d="M163 393q-29 0 -49.5 20.5t-20.5 49.5v186q0 29 20.5 49.5t49.5 20.5h186q29 0 49.5 -20.5t20.5 -49.5v-186q0 -29 -20.5 -49.5t-49.5 -20.5h-186zM465 463v186q0 48 -34 82t-82 34h-186q-48 0 -82 -34t-34 -82v-186q0 -48 34 -82t82 -34h186q48 0 82 34t34 82zM861 393
h-186q-29 0 -49.5 20.5t-20.5 49.5v186q0 29 20.5 49.5t49.5 20.5h186q29 0 49.5 -20.5t20.5 -49.5v-186q0 -29 -20.5 -49.5t-49.5 -20.5zM977 649q0 48 -34 82t-82 34h-186q-48 0 -82 -34t-34 -82v-186q0 -48 34 -82t82 -34h186q48 0 82 34t34 82v186zM349 -119h-186
q-29 0 -49.5 20.5t-20.5 49.5v186q0 29 20.5 49.5t49.5 20.5h186q29 0 49.5 -20.5t20.5 -49.5v-186q0 -29 -20.5 -49.5t-49.5 -20.5zM465 137q0 48 -34 82t-82 34h-186q-48 0 -82 -34t-34 -82v-186q0 -48 34 -82t82 -34h186q48 0 82 34t34 82v186zM675 -119
q-29 0 -49.5 20.5t-20.5 49.5v186q0 29 20.5 49.5t49.5 20.5h186q29 0 49.5 -20.5t20.5 -49.5v-186q0 -29 -20.5 -49.5t-49.5 -20.5h-186zM977 -49v186q0 48 -34 82t-82 34h-186q-48 0 -82 -34t-34 -82v-186q0 -48 34 -82t82 -34h186q48 0 82 34t34 82z" />
    <glyph glyph-name="uniE674" unicode="&#xe674;" 
d="M960 544q0 -26 -19 -45t-45 -19h-768q-26 0 -45 19t-19 45t19 45t45 19h768q26 0 45 -19t19 -45zM704 288q0 -26 -19 -45t-45 -19h-512q-26 0 -45 19t-19 45t19 45t45 19h512q26 0 45 -19t19 -45zM512 32q0 -26 -19 -45t-45 -19h-320q-26 0 -45 19t-19 45t19 45t45 19
h320q26 0 45 -19t19 -45z" />
    <glyph glyph-name="uniE675" unicode="&#xe675;" 
d="M835 364h-646q-25 0 -43 -18.5t-18 -45.5t18 -45.5t43 -18.5h646q25 0 43 18.5t18 45.5t-18 45.5t-43 18.5zM835 620h-646q-25 0 -43 -18.5t-18 -45.5t18 -45.5t43 -18.5h646q25 0 43 18.5t18 45.5t-18 45.5t-43 18.5zM835 108h-646q-25 0 -43 -18.5t-18 -45.5t18 -45.5
t43 -18.5h646q25 0 43 18.5t18 45.5t-18 45.5t-43 18.5z" />
    <glyph glyph-name="uniE676" unicode="&#xe676;" 
d="M513 -148q-91 0 -174 35.5t-143 95.5t-95.5 143t-35.5 174.5t35.5 174.5t95.5 143t143 95.5t174 35.5t174 -35.5t143 -95.5t95.5 -143t35.5 -174.5t-35.5 -174.5t-95.5 -143t-143 -95.5t-174 -35.5v0zM513 685q-104 0 -192.5 -51.5t-140 -140t-51.5 -193t51.5 -193
t140 -140t192.5 -51.5t192.5 51.5t140 140t51.5 193t-51.5 193t-140 140t-192.5 51.5v0zM513 685zM293 227q-30 0 -52 21.5t-22 52t22 52t52 21.5t51.5 -21.5t21.5 -52t-21.5 -52t-51.5 -21.5v0zM513 227q-30 0 -51.5 21.5t-21.5 52t21.5 52t51.5 21.5t51.5 -21.5t21.5 -52
t-21.5 -52t-51.5 -21.5v0zM733 227q-30 0 -51.5 21.5t-21.5 52t21.5 52t52 21.5t52 -21.5t21.5 -52t-21.5 -52t-52.5 -21.5v0zM733 227z" />
    <glyph glyph-name="uniE677" unicode="&#xe677;" 
d="M447 338h-391q-13 0 -21.5 8.5t-8.5 21.5v391q0 13 8.5 21.5t21.5 8.5h391q13 0 21.5 -8.5t8.5 -21.5v-391q0 -13 -8.5 -21.5t-21.5 -8.5zM974 338h-391q-13 0 -21.5 8.5t-8.5 21.5v391q0 13 8.5 21.5t21.5 8.5h391q13 0 21.5 -8.5t8.5 -21.5v-391q0 -13 -8.5 -21.5
t-21.5 -8.5zM447 -189h-391q-13 0 -21.5 8.5t-8.5 21.5v391q0 13 8.5 21.5t21.5 8.5h391q13 0 21.5 -8.5t8.5 -21.5v-391q0 -13 -8.5 -21.5t-21.5 -8.5zM974 -189h-391q-13 0 -21.5 8.5t-8.5 21.5v391q0 13 8.5 21.5t21.5 8.5h391q13 0 21.5 -8.5t8.5 -21.5v-391
q0 -13 -8.5 -21.5t-21.5 -8.5z" />
    <glyph glyph-name="uniE678" unicode="&#xe678;" horiz-adv-x="1025" 
d="M512 812q104 0 199 -40q92 -39 163 -110t110 -163q40 -95 40 -199t-40 -199q-39 -92 -110 -163t-163 -110q-95 -40 -199 -40t-199 40q-92 39 -163 110t-110 163q-40 95 -40 199t40 199q39 92 110 163t163 110q95 40 199 40zM512 -171q96 0 183 37.5t150 100.5t100.5 150
t37.5 183t-37.5 183t-100.5 150t-150 100.5t-183 37.5t-183 -37.5t-150 -100.5t-100.5 -150t-37.5 -183t37.5 -183t100.5 -150t150 -100.5t183 -37.5zM257 300zM192 300q0 27 19 45.5t45.5 18.5t45.5 -18.5t19 -45.5t-19 -45.5t-45.5 -18.5t-45.5 18.5t-19 45.5zM257 235
q-27 0 -46 19t-19 46t19 46t46 19t46 -19t19 -46t-19 -46t-46 -19zM256.5 364q-26.5 0 -45 -19t-18.5 -45t18.5 -45t45 -19t45.5 19t19 45t-19 45t-45.5 19zM514 300zM450 300q0 27 19 45.5t45.5 18.5t45 -18.5t18.5 -45.5t-18.5 -45.5t-45 -18.5t-45.5 18.5t-19 45.5z
M514 235q-27 0 -46 19t-19 46t19 46t46 19t46 -19t19 -46t-19 -46t-46 -19zM514.5 364q-26.5 0 -45.5 -19t-19 -45t19 -45t45.5 -19t45 19t18.5 45t-18.5 45t-45 19zM768 300zM704 300q0 27 19 45.5t45.5 18.5t45.5 -18.5t19 -45.5t-19 -45.5t-45.5 -18.5t-45.5 18.5
t-19 45.5zM768.5 235q-26.5 0 -45.5 19t-19 46t19 46t45.5 19t45.5 -19t19 -46t-19 -46t-45.5 -19zM768.5 364q-26.5 0 -45 -19t-18.5 -45t18.5 -45t45 -19t45 19t18.5 45t-18.5 45t-45 19z" />
    <glyph glyph-name="uniE679" unicode="&#xe679;" 
d="M512 605q-62 0 -120.5 -16.5t-103 -43.5t-84 -60t-66.5 -65t-46.5 -59.5t-29 -43.5t-9.5 -17q3 -7 8 -18t23.5 -42.5t41.5 -60.5t62 -64.5t83.5 -60.5t108 -42.5t132.5 -17.5q63 0 122.5 17t104 43.5t84 59.5t66 65t46 59.5t27.5 43.5l9 16q-3 7 -9 18t-27.5 43t-46.5 61
t-65.5 64.5t-84.5 61t-103.5 42.5t-122.5 17zM513 109q-83 0 -137 54.5t-54 136t54 136.5t137 55t137 -55t54 -136.5t-54 -136t-137 -54.5zM513 414q-47 0 -81 -34t-34 -80.5t34 -80.5t81 -34t81 34t34 80.5t-34 80.5t-81 34z" />
    <glyph glyph-name="uniE67A" unicode="&#xe67a;" 
d="M1007 -128l-320 320q73 98 73 221q0 101 -50.5 187.5t-136.5 136.5t-187.5 50t-188 -50t-136.5 -136.5t-50 -188t50 -187.5t136.5 -136.5t187.5 -50.5q145 0 252 98l317 -317q6 -6 14.5 -6t14.5 6l24 23q6 7 6 15.5t-6 14.5zM385.5 117q-122.5 0 -209.5 86.5t-87 209
t87 209.5t209.5 87t209 -87t86.5 -209.5t-86.5 -209t-209 -86.5zM137 410q0 -15 10.5 -25.5t25.5 -10.5t26 10.5t11 25.5q0 77 54.5 132t131.5 55q15 0 25.5 10.5t10.5 25.5t-10.5 25.5t-25.5 10.5v1q-107 0 -183 -76t-76 -184z" />
    <glyph glyph-name="uniE67B" unicode="&#xe67b;" 
d="M512 588q-178 0 -364 -190q-53 -53 -84 -98q2 -6 7.5 -16.5t24.5 -40.5t41.5 -57t61 -60.5t82 -57t104 -40t127.5 -16.5q227 0 375 176q51 59 73 112q-4 6 -12 16.5t-34 40.5t-53.5 57t-69.5 60.5t-83.5 57t-93.5 40t-102 16.5zM512 127q-93 0 -158.5 50.5t-65.5 122.5
t65.5 122.5t158.5 50.5t158.5 -50.5t65.5 -122.5t-65.5 -122.5t-158.5 -50.5zM512 415q-46 0 -79 -33.5t-33 -81.5t33 -81.5t79 -33.5t79 33.5t33 81.5t-33 81.5t-79 33.5zM512 415z" />
    <glyph glyph-name="uniE67C" unicode="&#xe67c;" 
d="M495.5 572q-65.5 0 -125.5 -18t-103.5 -45.5t-81 -62.5t-62 -67.5t-42.5 -62.5t-25 -45.5t-8 -18.5q3 -6 8 -17.5t24.5 -45t43 -63.5t62 -67t81.5 -63.5t103 -44.5t125.5 -18t125.5 17.5t103.5 45.5t81.5 63t62 67.5t42 62.5t25.5 45.5t7.5 17.5q-3 7 -8 18.5t-24.5 44.5
t-42.5 63.5t-62 67.5t-82 63.5t-103 44.5t-125.5 18zM495.5 61q-79.5 0 -135.5 56t-56 135.5t56 135.5t135.5 56t135.5 -56t56 -135.5t-56 -135.5t-135.5 -56zM591 252.5q0 -39.5 -28 -67.5t-67.5 -28t-67.5 28t-28 67.5t28 67.5t67.5 28t67.5 -28t28 -67.5z" />
    <glyph glyph-name="uniE67D" unicode="&#xe67d;" 
d="M495.5 572q-65.5 0 -125.5 -18t-103.5 -45.5t-81 -62.5t-62 -67.5t-42.5 -62.5t-25 -45.5t-8 -18.5q3 -6 8 -17.5t24.5 -45t43 -63.5t62 -67t81.5 -63.5t103 -44.5t125.5 -18t125.5 17.5t103.5 45.5t81.5 63t62 67.5t42 62.5t25.5 45.5t7.5 17.5q-3 7 -8 18.5t-24.5 44.5
t-42.5 63.5t-62 67.5t-82 63.5t-103 44.5t-125.5 18zM495.5 61q-79.5 0 -135.5 56t-56 135.5t56 135.5t135.5 56t135.5 -56t56 -135.5t-56 -135.5t-135.5 -56zM591 252.5q0 -39.5 -28 -67.5t-67.5 -28t-67.5 28t-28 67.5t28 67.5t67.5 28t67.5 -28t28 -67.5z" />
    <glyph glyph-name="uniE67E" unicode="&#xe67e;" 
d="M495.5 572q-65.5 0 -125.5 -18t-103.5 -45.5t-81 -62.5t-62 -67.5t-42.5 -62.5t-25 -45.5t-8 -18.5q3 -6 8 -17.5t24.5 -45t43 -63.5t62 -67t81.5 -63.5t103 -44.5t125.5 -18t125.5 17.5t103.5 45.5t81.5 63t62 67.5t42 62.5t25.5 45.5t7.5 17.5q-3 7 -8 18.5t-24.5 44.5
t-42.5 63.5t-62 67.5t-82 63.5t-103 44.5t-125.5 18zM495.5 61q-79.5 0 -135.5 56t-56 135.5t56 135.5t135.5 56t135.5 -56t56 -135.5t-56 -135.5t-135.5 -56zM591 252.5q0 -39.5 -28 -67.5t-67.5 -28t-67.5 28t-28 67.5t28 67.5t67.5 28t67.5 -28t28 -67.5z" />
    <glyph glyph-name="uniE67F" unicode="&#xe67f;" 
d="M944 284q0 -91 -35.5 -174t-95.5 -143t-143 -95.5t-174 -35.5t-173.5 35.5t-142.5 95.5t-95.5 143t-35.5 174t35.5 173.5t95.5 142.5t142.5 95.5t173.5 35.5t174 -35.5t143 -95.5t95.5 -142.5t35.5 -173.5zM748 25q5 5 5 12t-5 12l-140 138q59 64 59 150q0 93 -67 159
t-161 66t-161 -66t-67 -159t67 -158.5t161 -65.5q81 0 143 50l141 -138q5 -5 12.5 -5t12.5 5zM439 527q80 0 136.5 -55.5t56.5 -134t-56.5 -134.5t-136.5 -56t-136.5 56t-56.5 134.5t56.5 134t136.5 55.5zM439 527z" />
    <glyph glyph-name="uniE680" unicode="&#xe680;" 
d="M949 264q-10 15 -27.5 37.5t-67.5 73.5t-101 87l56 64q9 10 8 24t-11.5 23t-24.5 8t-23 -11l-63 -73q-75 41 -149 48v75q0 14 -10 24t-24 10t-24 -10t-10 -24v-75q-74 -7 -149 -48l-63 73q-9 10 -23 11t-24.5 -8t-11.5 -23t8 -24l56 -64q-51 -36 -101 -87t-67.5 -73.5
t-27.5 -37.5q-13 -19 0 -38q5 -8 14 -19.5t34 -41t51.5 -56t66.5 -58.5t80.5 -55t91 -38.5t99.5 -15.5t99.5 15.5t91 38.5t80.5 55t66.5 58.5t51.5 56t34 41t14 19.5q13 19 0 38zM512 10q-49 0 -100 19t-90.5 45.5t-78 62.5t-60 60t-39.5 48q18 24 39.5 48t60 60t77.5 62.5
t90.5 45.5t100.5 19t100 -19t90.5 -45.5t78 -62.5t60 -60t39.5 -48q-18 -24 -39.5 -48t-60 -60t-78 -62.5t-90.5 -45.5t-100 -19zM512 437q-81 0 -138 -57t-57 -137.5t57 -137.5t138 -57t138 57t57 137.5t-57 137.5t-138 57zM512 115q-53 0 -90.5 37.5t-37.5 90t37.5 90
t90.5 37.5t90.5 -37.5t37.5 -90t-37.5 -90t-90.5 -37.5zM494 339q-33 0 -56 -23t-23 -55q0 -14 10 -24t24 -10t23.5 10t9.5 24q0 4 3.5 7.5t8.5 3.5q14 0 23.5 10t9.5 23.5t-9.5 23.5t-23.5 10z" />
    <glyph glyph-name="uniE681" unicode="&#xe681;" 
d="M1023 -105l-106 -106l-266 266q-106 -74 -235 -74q-113 0 -208.5 55.5t-151 151.5t-55.5 208.5t55.5 208t151 151.5t208 56t208.5 -56t151.5 -151.5t55.5 -208.5q0 -128 -74 -235zM416 684q-119 0 -203.5 -84.5t-84.5 -203.5t84.5 -203t203.5 -84t203 84t84 203
t-84 203.5t-203 84.5z" />
    <glyph glyph-name="uniE682" unicode="&#xe682;" 
d="M1020 -112l-77 77q71 68 71 166q0 95 -67.5 163t-163 68t-163 -68t-67.5 -163t67.5 -163t163.5 -68q77 0 139 48q0 -1 1 -2l77 -78q4 -3 9.5 -3t9.5 3q10 10 0 20zM783.5 -73q-84.5 0 -144 60t-59.5 144t59.5 144t144 60t144 -60t59.5 -144t-59.5 -144t-144 -60zM533 131
q0 103 73 176t176 73q67 0 125 -35v222q0 57 -39.5 96.5t-96.5 39.5h-635q-56 0 -96 -39.5t-40 -96.5v-486q0 -57 40 -96.5t96 -39.5h482q-40 34 -62.5 82.5t-22.5 103.5zM438 293h-274q-4 0 -7.5 3t-3.5 8t3.5 8t7.5 3h274q4 0 7.5 -3t3.5 -8t-3.5 -8t-7.5 -3zM438 381
h-274q-4 0 -7.5 3.5t-3.5 8t3.5 8t7.5 3.5h274q4 0 7.5 -3.5t3.5 -8t-3.5 -8t-7.5 -3.5zM438 470h-274q-4 0 -7.5 3t-3.5 8t3.5 8t7.5 3h274q4 0 7.5 -3t3.5 -8t-3.5 -8t-7.5 -3zM522 558h-358q-4 0 -7.5 3.5t-3.5 8t3.5 8t7.5 3.5h358q4 0 7.5 -3.5t3.5 -8t-3.5 -8
t-7.5 -3.5z" />
    <glyph glyph-name="uniE683" unicode="&#xe683;" 
d="M511.5 -143q-88.5 0 -169.5 33.5t-143.5 96t-96 143.5t-33.5 169.5t33.5 169.5t96 143.5t143.5 96t169.5 33.5t169.5 -33.5t143.5 -96t96 -143.5t33.5 -169.5t-33.5 -169.5t-96 -143.5t-143.5 -96t-169.5 -33.5zM511.5 658q-71.5 0 -137 -27t-116 -78t-77.5 -116.5
t-27 -137t27 -137t77.5 -116t116 -78t137 -27.5t137 27.5t116.5 78t78 116t27 137t-27 137t-78 116.5t-116.5 78t-137 27zM511.5 75q-17.5 0 -30 12.5t-12.5 30.5v364q0 17 12.5 29.5t30 12.5t30 -12.5t12.5 -29.5v-364q0 -18 -12.5 -30.5t-30 -12.5zM694 257h-364
q-18 0 -30.5 12.5t-12.5 30t12.5 30t30.5 12.5h364q17 0 29.5 -12.5t12.5 -30t-12.5 -30t-29.5 -12.5z" />
    <glyph glyph-name="uniE684" unicode="&#xe684;" 
d="M748 469h-287v141q0 26 -16 35t-39 -6l-278 -180q-22 -15 -22 -35.5t22 -34.5l276 -179q23 -13 40 -3t17 32v122h206q24 0 43 -8t30.5 -20t20 -28.5t12.5 -29.5t6 -28t2 -20v-8q-1 0 0 -8.5t-1.5 -23t-5 -31.5t-11.5 -34t-20.5 -31t-31 -23t-44.5 -9h-425q-2 0 -5.5 -1
t-12 -4.5t-15 -9t-12 -16.5t-5.5 -25.5t5.5 -25.5t12 -16t15 -8t12 -3.5t5.5 -0.5h506q75 0 117.5 68t47.5 137l5 68q0 5 -0.5 14t-4 34.5t-9 49t-18.5 52t-30 49t-45 34.5t-63 14z" />
    <glyph glyph-name="uniE685" unicode="&#xe685;" 
d="M939 757h-570q-13 0 -22.5 -9t-9.5 -23v-261h65v229h413l-167 -94q-16 -10 -16 -28v-499h-230v178h-65v-210q0 -13 9.5 -22.5t22.5 -9.5h263v-122q0 -19 16 -28q8 -4 16.5 -4t15.5 4l268 152q23 7 23 30v685q0 14 -9.5 23t-22.5 9zM443 312q18 0 31.5 13t13.5 32
t-13.5 32t-31.5 13h-173v84q0 12 -10.5 17.5t-19.5 -1.5l-178 -129q-8 -6 -8 -16t8 -16l178 -129q5 -4 11 -4q5 0 9 3q10 5 10 17v84h173z" />
    <glyph glyph-name="uniE686" unicode="&#xe686;" 
d="M16 796zM628 790l94 -88l-388 -402l388 -398l-88 -92l-480 490z" />
    <glyph glyph-name="uniE687" unicode="&#xe687;" 
d="M463 582v-133v-26l25 4q31 4 60 4q105 0 194.5 -52t141.5 -141.5t52 -195.5v-9q-54 92 -158.5 146.5t-229.5 54.5q-32 0 -66 -4l-19 -3v-20v-139l-176 125l-186 132l186 131zM485 625l-211 -150l-212 -150l212 -151l211 -150v183q32 5 63 5q144 0 256 -74.5t144 -188.5
q11 47 11 93q0 112 -55 207t-150 150t-206 55q-31 0 -63 -5v176z" />
    <glyph glyph-name="uniE688" unicode="&#xe688;" 
d="M470 62l-150 183h528q26 0 43.5 18.5t17.5 44t-17.5 44t-43.5 18.5h-528l150 183q17 20 15.5 45.5t-20 42.5t-44 15.5t-42.5 -20.5l-233 -285q-15 -17 -15 -42v-1v-3q0 -24 15 -41l233 -285q17 -20 42.5 -21t44 16t20 42.5t-15.5 45.5z" />
    <glyph glyph-name="uniE689" unicode="&#xe689;" 
d="M512 725q-89 0 -169.5 -34.5t-139 -93t-93 -139.5t-34.5 -169.5t34.5 -169.5t93 -139t139 -92.5t169.5 -34.5t169.5 34.5t139 92.5t93 139t34.5 169.5t-34.5 169.5t-93 139.5t-139 93t-169.5 34.5zM607 100q8 -7 8.5 -17.5t-6.5 -17t-17 -6t-18 8.5l-203 200q-9 9 -8 21
q-1 11 8 20l203 201q8 7 18 8t17 -6t6.5 -17t-8.5 -18l-191 -188zM607 100z" />
    <glyph glyph-name="uniE68A" unicode="&#xe68a;" 
d="M751 -149q23 41 38 83.5t20.5 88.5t0 87.5t-29 78t-61.5 63t-101.5 41.5t-146.5 13v-227l-342 343l342 343v-222q87 2 159 -15.5t121.5 -49.5t84 -77t49 -97.5t14 -111.5t-18 -117t-50 -116t-79.5 -108z" />
    <glyph glyph-name="uniE68B" unicode="&#xe68b;" 
d="M801 395q42 -25 82.5 -84t59.5 -131q22 -84 22 -190q-34 55 -48 75q-11 15 -28 34t-55.5 49.5t-80.5 49.5q-40 19 -100.5 27.5t-101.5 7.5h-41v-175l-419 297l419 297v-176q101 -8 154 -19q39 -8 73.5 -23.5t48.5 -27.5z" />
    <glyph glyph-name="uniE68C" unicode="&#xe68c;" 
d="M483 -95q-12 0 -25 6l-4 2l-367 330q-21 15 -22 39q-3 28 22 49l370 328q13 13 30 13q24 0 36 -21q6 -11 7 -28v-2v-189q14 1 30 1q49 0 96 -11q66 -17 121 -55q67 -47 111 -123q50 -88 69 -213q5 -36 -10 -53q-12 -14 -30 -14q-23 0 -42 26l-2 3l-1 3q-19 35 -62 69
q-40 29 -90 47q-63 21 -141 21q-23 0 -48 -2h-2v-161q3 -32 -13 -50q-13 -15 -33 -15zM145 287l312 -280v144l1 4q5 23 24.5 35t43.5 13q27 2 53 2q92 0 168 -27q61 -21 110 -60q5 -3 9 -7q-39 134 -131 197q-76 54 -175 54q-21 0 -34 -2l-2 -1h-1h-7q-32 0 -49 25
q-8 13 -9 27v1v153z" />
    <glyph glyph-name="uniE68D" unicode="&#xe68d;" 
d="M766 687v-82v-129v-157v-159q0 -77 0.5 -141.5t0.5 -100.5q0 -25 -12 -41t-29.5 -22t-39 0t-40.5 24q-38 39 -82 81.5t-90.5 85.5t-94 86t-91.5 83q-20 17 -29.5 43t-8.5 53.5t11.5 54t32.5 45.5q40 34 79.5 69.5t81 73t87 78.5t96.5 87q22 20 45.5 27t41.5 2t29.5 -20.5
t11.5 -40.5z" />
    <glyph glyph-name="uniE68E" unicode="&#xe68e;" 
d="M873 -132q0 -10 -8 -14.5t-16 0.5l-690 433q-8 4 -8 13t8 13l690 433q7 5 15.5 0.5t8.5 -14.5v-864z" />
    <glyph glyph-name="uniE68F" unicode="&#xe68f;" 
d="M327 313l347 -365h160l-347 365l347 339h-160zM190 652h120v-704h-120v704z" />
    <glyph glyph-name="uniE690" unicode="&#xe690;" 
d="M327 313l347 -365h160l-347 365l347 339h-160zM190 652h120v-704h-120v704z" />
    <glyph glyph-name="uniE691" unicode="&#xe691;" 
d="M327 313l347 -365h160l-347 365l347 339h-160zM190 652h120v-704h-120v704z" />
    <glyph glyph-name="uniE692" unicode="&#xe692;" 
d="M780 666q0 22 -10 31q-2 2 -5 4q-10 7 -21.5 7t-26.5 -12l-463 -342q-11 -11 -10 -26q-1 -14 10 -25l465 -344q28 -21 51 0q10 10 10 32v675z" />
    <glyph glyph-name="uniE693" unicode="&#xe693;" 
d="M792 -27l-346 346l337 337h1q9 9 9 22.5t-9.5 23t-22.5 9.5t-22 -10h-1l-359 -359h-1l-1 -1q-10 -9 -10 -22.5t10 -22.5q0 -1 1 -1v0l366 -366q1 0 1 -1q10 -10 23.5 -10t22.5 10q9 9 9.5 22t-8.5 23zM269.5 711q-13.5 0 -22.5 -9.5t-9 -22.5v-728q0 -13 9 -22.5
t22.5 -9.5t23 9.5t9.5 22.5v728q0 13 -9.5 22.5t-23 9.5z" />
    <glyph glyph-name="uniE694" unicode="&#xe694;" 
d="M260 288l78 79h1l369 369l56 -57l-354 -391l354 -391l-56 -56z" />
    <glyph glyph-name="uniE695" unicode="&#xe695;" 
d="M331 283l546 -427q8 -6 14 -3.5t6 12.5v868q0 11 -6 13.5t-14 -4.5l-546 -427q-9 -6 -9 -15.5t9 -16.5zM321 -72q0 -5 -3 -8.5t-8 -3.5h-170q-11 0 -11 11v747q0 4 3 7.5t8 3.5h170q5 0 8 -3.5t3 -7.5v-746z" />
    <glyph glyph-name="uniE696" unicode="&#xe696;" 
d="M238 283l546 -427q8 -6 14 -3.5t6 12.5v868q0 11 -6 13.5t-14 -4.5l-546 -427q-9 -6 -9 -15.5t9 -16.5z" />
    <glyph glyph-name="uniE697" unicode="&#xe697;" 
d="M778 -30l-339 326l336 336q10 11 10 25.5t-10.5 25t-25 10.5t-24.5 -11l-360 -360l-3 -2q-11 -10 -11 -24.5t11 -24.5q2 -3 6 -5l360 -345q10 -10 25 -10t25.5 10t10.5 24.5t-11 24.5zM242 724q-15 0 -25 -10.5t-10 -25.5v-776q0 -15 10 -25.5t25 -10.5t25 10.5t10 25.5
v776q0 15 -10 25.5t-25 10.5z" />
    <glyph glyph-name="uniE698" unicode="&#xe698;" horiz-adv-x="1028" 
d="M380 233l472 -375q37 -19 73 3t36 62v751q0 40 -36 62q-18 11 -39 11q-18 0 -34 -8l-472 -375q-16 -15 -22 -21.5t-12.5 -18.5t-6.5 -25q0 -19 9 -32.5t32 -33.5z" />
    <glyph glyph-name="uniE699" unicode="&#xe699;" 
d="M224 272q6 -11 8 -13l1 -1t1.5 -1t1.5 -1v-2l465 -448q19 -18 45 -18q27 0 45 20q19 19 18.5 45t-19.5 45l-420 404l421 398q20 18 20.5 44.5t-17.5 46t-44.5 20t-45.5 -17.5l-469 -444q-16 -14 -19 -35t6 -39l1 -1zM224 272z" />
    <glyph glyph-name="uniE69A" unicode="&#xe69a;" 
d="M896 -96q0 -66 -39.5 -87.5t-94.5 13.5l-579 372q-55 35 -55 86t55 86l579 372q55 35 94.5 13.5t39.5 -87.5v-768z" />
    <glyph glyph-name="uniE69B" unicode="&#xe69b;" 
d="M840 670l-483 -310q-46 -30 -46 -72t46 -72l483 -310q46 -30 79 -12t33 74v640q0 56 -33 74t-79 -12zM111.5 688q-16.5 0 -28 -11.5t-11.5 -28.5v-720q0 -17 11.5 -28.5t28 -11.5t28.5 11.5t12 28.5v720q0 17 -12 28.5t-28.5 11.5z" />
    <glyph glyph-name="uniE69C" unicode="&#xe69c;" 
d="M184 -94l483 310q46 30 46 72t-46 72l-483 310q-46 30 -79 12t-33 -74v-640q0 -56 33 -74t79 12zM912.5 -112q16.5 0 28 11.5t11.5 28.5v720q0 17 -11.5 28.5t-28 11.5t-28.5 -11.5t-12 -28.5v-720q0 -17 12 -28.5t28.5 -11.5z" />
    <glyph glyph-name="uniE69D" unicode="&#xe69d;" 
d="M960 536l-660 -207v254h-236v-566h236v254l660 -207v472z" />
    <glyph glyph-name="uniE69E" unicode="&#xe69e;" 
d="M896 -224q-13 0 -22.5 9.5t-9.5 22.5v432l-719 -451q-8 -5 -17 -5q-8 0 -15 4q-17 9 -17 28v944q0 19 16.5 28.5t32.5 -1.5l719 -451v432q0 13 9.5 22.5t22.5 9.5t22.5 -9.5t9.5 -22.5v-960q0 -13 -9.5 -22.5t-22.5 -9.5zM160 703v-830l661 415z" />
    <glyph glyph-name="uniE69F" unicode="&#xe69f;" 
d="M968 812l-912 -512l912 -512v1024z" />
    <glyph glyph-name="uniE6A0" unicode="&#xe6a0;" 
d="M333 300l681 -512v1024zM10 812h239v-1024h-239v1024z" />
    <glyph glyph-name="uniE6A1" unicode="&#xe6a1;" 
d="M932 -93v738q0 46 -30.5 78.5t-74.5 32.5q-30 0 -56 -17l-481 -286v202q0 46 -25 73.5t-68 27.5t-74 -32.5t-31 -78.5v-738q0 -46 31 -78.5t74 -32.5t68 27.5t25 73.5v253l481 -337q26 -17 56 -17q44 0 74.5 32.5t30.5 78.5z" />
    <glyph glyph-name="uniE6A2" unicode="&#xe6a2;" horiz-adv-x="1000" 
d="M263 -114q-28 0 -49 18t-21 56v308h-64q-19 0 -35 20q-17 21 -17 49v8l411 426q7 7 20 7q15 0 22 -7q2 -2 414 -422l6 -6v-8q0 -27 -9 -43q-14 -22 -41 -22h-62l-1 -313v-2q-4 -17 -15 -33q-24 -36 -64 -36h-152v20q1 282 0 293q0 4 -3 10.5t-7 6.5h-164q-4 0 -7.5 -5
t-3.5 -11v-314h-154h-4zM131 307h102v-347q0 -34 30 -34h2h1h1h114v274q0 22 15 39t36 17h164q25 0 40 -23q10 -16 10 -33q1 -11 0 -274h112q28 0 39 37l1 346h102q5 0 6 3q3 5 4 15q-374 381 -401 408l-392 -405q3 -16 14 -23z" />
    <glyph glyph-name="uniE6A3" unicode="&#xe6a3;" horiz-adv-x="1199" 
d="M600 776l-586 -586h238v-384h223q58 127 179 197v62q-139 -69 -213 -204h-134v384h-163l456 456l455 -456h-163v-384h-146v-55h201v384h238z" />
    <glyph glyph-name="uniE6A4" unicode="&#xe6a4;" 
d="M583 438q-30 28 -53 28q-26 0 -57 -28q-7 -8 -280 -254v-188q0 -13 9 -22t22 -9h173q7 0 11.5 4.5t4.5 11.5v134q0 7 4.5 11.5t10.5 4.5h195q7 0 11.5 -4.5t4.5 -11.5v-134q0 -7 4.5 -11.5t10.5 -4.5h177q13 0 22 9t9 22v187q-271 247 -279 255zM976 271.5
q-1 21.5 -20 38.5l-22 22q-17 17 -42 40.5t-55 52.5q-29 28 -61 58q-31 30 -62 59q-28 27 -54 52q-24 22 -42 40q-17 16 -22 20q-28 27 -67.5 26.5t-72.5 -33.5q-5 -4 -32 -29t-65 -61q-38 -35 -82 -75q-42 -38 -83 -76q-37 -34 -66 -61q-28 -25 -33 -30q-14 -14 -15 -36
t17 -38q16 -14 38 -13.5t36 11.5q4 3 26 23q23 21 52 48q31 28 66.5 60.5t67.5 62.5q31 29 57 53q24 22 33 30q27 24 55 25t56 -25q6 -5 30 -27q24 -23 55 -52q33 -31 68 -64q37 -34 68 -63q39 -36 55 -51q22 -21 27 -24q13 -12 35.5 -13t39.5 14q15 14 14 35.5z" />
    <glyph glyph-name="uniE6A5" unicode="&#xe6a5;" 
d="M1025 206l-192 201v300h-128v-167l-192 200l-513 -534v-33h128v-334h320v200h129v-200h320v334h128v33z" />
    <glyph glyph-name="uniE6A6" unicode="&#xe6a6;" 
d="M968 288h48v92l-145 124v189h-122v-93l-212 192h-48l-481 -432v-72h48l466 405zM521 647l-416 -359l287 -70v142h261v-142l288 46zM105 288v-480h285v382h265l-2 28h-261zM655 190l-2 28l288 46v-456h-286v382z" />
    <glyph glyph-name="uniE6A7" unicode="&#xe6a7;" 
d="M956 320v-459q0 -22 -15 -37t-37 -15h-181h-25h-26q-11 0 -18.5 7.5t-7.5 18.5v25v207q0 22 -15 37t-37 15h-155q-21 0 -36.5 -15t-15.5 -37v-207v-25q0 -11 -7.5 -18.5t-17.5 -7.5h-26h-26h-181q-21 0 -36.5 15t-15.5 37v460l451 439z" />
    <glyph glyph-name="uniE6A8" unicode="&#xe6a8;" 
d="M151 -132v864q0 10 8.5 14.5t15.5 -0.5l690 -433q8 -4 8 -13t-8 -13l-690 -433q-7 -5 -15.5 -0.5t-8.5 14.5z" />
    <glyph glyph-name="uniE6A9" unicode="&#xe6a9;" 
d="M959 162l-168 168v252h-112v-140l-168 168l-448 -448v-28h112v-280h280v168h112v-168h280v280h112v28z" />
    <glyph glyph-name="uniE6AA" unicode="&#xe6aa;" 
d="M960 257l-168 168v252h-112v-140l-168 168l-448 -448v-28h112v-280h280v168h112v-168h280v280h112v28z" />
    <glyph glyph-name="uniE6AB" unicode="&#xe6ab;" 
d="M959 312l-433 433q-6 6 -14 6t-14 -6l-434 -433q-9 -10 -4 -22.5t19 -12.5h104v-410q0 -9 6 -15t14 -6h203q8 0 14 6t6 15v306h173v-306q0 -9 6 -15t14 -6h203q8 0 14 6t6 15v410h103q9 0 15 6t6 14q0 9 -7 15z" />
    <glyph glyph-name="uniE6AC" unicode="&#xe6ac;" 
d="M768 384v224h-128v-96l-128 128l-352 -352h64v-352h192v288h192v-288h192v352h64zM448 -64h128v256h-128v-256zM576 192h-128v-256h128v256zM914 -38q0 -31 -22.5 -53.5t-53.5 -22.5h-652q-31 0 -53.5 22.5t-22.5 53.5v313h-78v-313q0 -64 45 -109t109 -45h652
q64 0 109 45t45 109v313h-78v-313zM838 768h-652q-64 0 -109 -45t-45 -109v-313h78v313q0 31 22.5 53.5t53.5 22.5h652q31 0 53.5 -22.5t22.5 -53.5v-313h78v313q0 64 -45 109t-109 45z" />
    <glyph glyph-name="uniE6AD" unicode="&#xe6ad;" 
d="M504 721l-435 -411q-7 -6 -4 -14.5t12 -8.5l115 1v-352q0 -13 9.5 -22.5t22.5 -9.5h160v288q0 13 9.5 22.5t22.5 9.5h192q13 0 22.5 -9.5t9.5 -22.5v-288h160q13 0 22.5 9.5t9.5 22.5v352h115q9 0 12 8.5t-4 14.5l-435 410q-8 7 -16 0z" />
    <glyph glyph-name="uniE6AE" unicode="&#xe6ae;" 
d="M385 722l380 -400q13 -14 13 -33.5t-13 -33.5l-380 -400q-14 -14 -32.5 -14t-31.5 14l-63 67q-13 14 -13 33.5t13 32.5l285 300l-285 300q-13 14 -13 33.5t13 33.5l63 67q13 14 31.5 14t32.5 -14zM385 722z" />
    <glyph glyph-name="uniE6AF" unicode="&#xe6af;" 
d="M850 439v284h-163v-122l-162 163l-447 -447h82v-446h243v365h244v-365h243v446h82zM444 -130h162v325h-162v-325z" />
    <glyph glyph-name="uniE6B0" unicode="&#xe6b0;" 
d="M237 643q-9 8 -19.5 2.5t-10.5 -18.5v-669q0 -13 10.5 -18.5t19.5 2.5l350 335q6 6 6 15.5t-6 15.5zM735 577h82v-569h-82v569z" />
    <glyph glyph-name="uniE6B1" unicode="&#xe6b1;" horiz-adv-x="1028" 
d="M647 364l-473 375q-37 19 -72 -3q-36 -22 -36 -62v-751q0 -40 36 -62q18 -11 39 -11q17 0 33 8l473 376q15 14 21.5 20.5t13 19t6.5 25.5q0 19 -9.5 32t-31.5 33z" />
    <glyph glyph-name="uniE6B2" unicode="&#xe6b2;" 
d="M800 272q1 0 1.5 1.5t1.5 1.5q9 18 5.5 39t-18.5 35l-469 444q-20 18 -46 17.5t-44.5 -20t-17.5 -46t20 -44.5l421 -398l-419 -404q-19 -19 -19.5 -45t17.5 -45q19 -20 46 -20q25 0 44 18l465 448q1 0 2 2v1l1 1l1 1q2 2 8 13zM800 272z" />
    <glyph glyph-name="uniE6B3" unicode="&#xe6b3;" 
d="M80 453zM959 415q0 -42 -30 -72t-72 -30h-231q-42 0 -72 30t-30 72v232q0 41 30 71t72 30h333v-333zM78 146zM397 748q42 0 72 -30t30 -71v-232q0 -42 -30 -72t-72 -30h-232q-41 0 -71 30t-30 72v333h333zM79 148zM959 -147h-333q-42 0 -71.5 29.5t-29.5 71.5v232
q0 42 29.5 71.5t71.5 29.5h232q42 0 71.5 -29.5t29.5 -71.5v-333zM64 -147v333q0 42 30 71.5t71 29.5h232q42 0 72 -29.5t30 -71.5v-232q0 -42 -30 -71.5t-72 -29.5h-333z" />
    <glyph glyph-name="uniE6B4" unicode="&#xe6b4;" 
d="M416 -84v256h192v-256h195v384h125l-416 384l-416 -384h125v-384h195z" />
    <glyph glyph-name="uniE6B5" unicode="&#xe6b5;" 
d="M571 411q-32 30 -57 30q-27 0 -60 -30q-8 -7 -301 -271v-202q0 -14 10 -23.5t23 -9.5h186q7 0 12 5t5 12v144q0 7 4.5 11.5t11.5 4.5h209q7 0 12 -4.5t5 -11.5v-144q0 -7 4.5 -12t11.5 -5h190q13 0 23 9.5t10 23.5v200q-290 264 -299 273zM992 233q-1 23 -21 42l-24 23
q-18 18 -45 43t-59 56q-32 32 -65 63q-35 33 -66 62q-26 25 -59 56q-26 25 -44 43q-18 17 -24 22q-30 28 -72 27.5t-78 -35.5q-6 -5 -34 -31q-31 -28 -70 -65q-41 -38 -88 -81q-42 -38 -89 -81q-37 -34 -70 -65q-30 -27 -36 -33q-15 -14 -16 -38t18 -41q17 -15 41 -14t39 12
q4 4 28 25q24 22 56 52q32 29 70 65q38 34 73 66q31 30 61 57q25 23 36 32q28 26 58 26.5t60 -26.5q7 -6 32 -29q25 -24 59 -56q33 -31 73 -68q41 -39 73 -68q37 -35 58 -54q25 -23 29 -26q15 -13 39 -14t42 15q16 15 15 38z" />
    <glyph glyph-name="uniE6B6" unicode="&#xe6b6;" 
d="M1007 270l-495 463l-495 -462q-7 -7 -7.5 -17t6.5 -17t16.5 -7.5t17.5 6.5l462 431l462 -433q7 -6 17 -6t17 8q7 7 6.5 17t-7.5 17zM856 260q-10 0 -17 -7t-7 -17v-368h-192v256h-256v-256h-192v368q0 10 -7 17t-17 7t-17 -7t-7 -17v-416h288v256h160v-256h288v416
q0 10 -7 17t-17 7zM688 604h144v-128q0 -10 7 -17t17 -7t17 7t7 17v176h-192q-10 0 -17 -7t-7 -17t7 -17t17 -7z" />
    <glyph glyph-name="uniE6B7" unicode="&#xe6b7;" 
d="M589 609l308 -309q12 -12 5.5 -27.5t-23.5 -15.5h-85v-217q0 -41 -25 -64q-24 -21 -60 -21h-53q-11 0 -18.5 7.5t-7.5 17.5v179h-118v-179q0 -10 -7.5 -17.5t-18.5 -7.5h-173q-33 -2 -57 21q-25 23 -25 64v217h-85q-17 0 -23.5 15.5t5.5 27.5l324 323q27 27 47 33
t39.5 -4.5t50.5 -42.5z" />
    <glyph glyph-name="uniE6B8" unicode="&#xe6b8;" 
d="M960 259l-448 448l-448 -448h138v-366h211v262h209v-262h209v366h129zM884 624h-216v-1l216 -216v217z" />
    <glyph glyph-name="uniE6B9" unicode="&#xe6b9;" 
d="M724 583v-254l-660 207v-472l660 207v-254h236v566h-236z" />
    <glyph glyph-name="uniE6BA" unicode="&#xe6ba;" 
d="M445 632q-44 -49 -141.5 -152t-141.5 -152q-23 -26 -20.5 -45t14.5 -29.5t23 -10.5h83v-247q0 -24 15.5 -44.5t38.5 -20.5h122l-1 224h166v-224h122q21 0 37.5 20.5t16.5 62.5v229h65q24 0 33.5 22.5t-8.5 48.5q-40 47 -135 155t-140 161q-78 77 -149 2z" />
    <glyph glyph-name="uniE6BB" unicode="&#xe6bb;" 
d="M64 748l448 -448l-448 -448h448l448 448l-448 448h-448zM64 748z" />
    <glyph glyph-name="uniE6BC" unicode="&#xe6bc;" 
d="M426 336l44 43l418 418q15 15 35.5 15t35.5 -15l44 -43q14 -15 14 -36t-14 -35l-383 -383l383 -382q14 -15 14 -36t-14 -35l-44 -44q-15 -15 -35.5 -15t-35.5 15l-418 418l-44 44q-14 14 -14 35t14 36zM426 336zM7 -162v924q0 20 14.5 35t35.5 15h62q20 0 35 -15t15 -35
v-924q0 -20 -15 -35t-36 -15h1h-62q-21 0 -35.5 15t-14.5 35zM7 -162z" />
    <glyph glyph-name="uniE6BD" unicode="&#xe6bd;" 
d="M270 751v-901l491 450z" />
    <glyph glyph-name="uniE6BE" unicode="&#xe6be;" 
d="M785 271h172l-447 448l-448 -448h167v-410h198v255h166v-255h192v410z" />
    <glyph glyph-name="uniE6BF" unicode="&#xe6bf;" 
d="M56 812l912 -512l-912 -512v1024z" />
    <glyph glyph-name="uniE6C0" unicode="&#xe6c0;" 
d="M802 300l-512 512l-73 -73l439 -439l-439 -439l73 -73zM290 -212z" />
    <glyph glyph-name="uniE6C1" unicode="&#xe6c1;" horiz-adv-x="1025" 
d="M538 795q10 -11 9.5 -26t-10.5 -25l-476 -451q-11 -10 -26 -9.5t-25 11.5t-10 26t11 25l476 451q11 10 26 9.5t25 -11.5v0zM486 795q10 11 25 11.5t26 -9.5l476 -450q11 -11 11 -26t-10 -26t-25 -11.5t-26 9.5l-476 451q-11 10 -11.5 25t10.5 26v0zM1024 629
q0 -15 -10.5 -26t-25.5 -11t-26 11t-11 26v146q0 15 11 25.5t26 10.5t25.5 -10.5t10.5 -25.5v-146zM1024 775q0 -15 -10.5 -26t-25.5 -11h-146q-15 0 -25.5 11t-10.5 26t10.5 25.5t25.5 10.5h146q15 0 25.5 -10.5t10.5 -25.5v0zM223 -175q0 -15 -10.5 -25.5t-25.5 -10.5
t-25.5 10.5t-10.5 25.5v502q0 15 10.5 25.5t25.5 10.5t25.5 -10.5t10.5 -25.5v-502zM879 -175q0 -15 -10.5 -25.5t-26.5 -10.5q-15 0 -25.5 10.5t-10.5 25.5v502q0 15 10.5 25.5t25.5 10.5q16 0 26.5 -10.5t10.5 -25.5v-502zM441 -175q0 -15 -10.5 -25.5t-25.5 -10.5h-218
q-15 0 -25.5 10.5t-10.5 25.5t10.5 26t25.5 11h218q15 0 25.5 -11t10.5 -26v0zM879 -175q0 -15 -11 -25.5t-26 -10.5h-217q-15 0 -26 10.5t-11 25.5t11 26t26 11h217q16 0 26.5 -11t10.5 -26v0zM661 117q0 -15 -10.5 -25.5t-25.5 -10.5h-218q-15 0 -25.5 10.5t-10.5 25.5
t10.5 26t25.5 11h218q15 0 25.5 -11t10.5 -26v0zM441 -175q0 -15 -10.5 -25.5t-25.5 -10.5t-26 10.5t-11 25.5v292q0 15 11 26t26 11t25.5 -11t10.5 -26v-292zM661 -175q0 -15 -10.5 -25.5t-25.5 -10.5t-26 10.5t-11 25.5v292q0 15 11 26t26 11t25.5 -11t10.5 -26v-292z" />
    <glyph glyph-name="uniE6C2" unicode="&#xe6c2;" 
d="M982 190q-12 0 -21 9l-415 468q-15 16 -35 16t-34 -17l-415 -467q-8 -9 -19.5 -9.5t-20 7t-9 19t7.5 20.5l414 467q31 35 76 35t76 -35l415 -467q8 -9 7.5 -20.5t-9.5 -18.5q-8 -7 -18 -7zM843 242v-276q0 -23 -16.5 -39t-39.5 -16h-110v221q0 46 -32.5 78t-78.5 32h-110
q-46 0 -78.5 -32t-32.5 -78v-221h-110q-23 0 -39.5 16t-16.5 39v276h-55v-276q0 -46 32.5 -78.5t78.5 -32.5h110h56v56v221q0 23 16 39t39 16h110q23 0 39.5 -16t16.5 -39v-221v-56h55h110q46 0 78.5 32.5t32.5 78.5v276h-55zM843 242z" />
    <glyph glyph-name="uniE6C3" unicode="&#xe6c3;" horiz-adv-x="1025" 
d="M389 722q-113 -94 -191.5 -168.5t-175.5 -180.5q-15 -21 -20 -50.5t1 -50.5t19 -21h122v-304q0 -121 53 -121h190v303h243v-303h175q30 0 49 29t19 92v304h122q10 0 17.5 9t10 23.5t1 30.5t-9 32t-19.5 27q-156 158 -384 345q-50 39 -89 50.5t-69 -0.5t-64 -46z" />
    </font>
</defs>
</svg>
